<svg width="79" height="79" viewBox="0 0 79 79" fill="none" xmlns="http://www.w3.org/2000/svg">
<g clip-path="url(#clip0_2_247)">
<path fill-rule="evenodd" clip-rule="evenodd" d="M48.0395 9.5362C43.1185 5.34242 35.8804 5.34242 30.9592 9.5362L29.72 10.5922C28.6656 11.4908 27.3546 12.0339 25.9736 12.1441L24.3506 12.2736C17.9054 12.7879 12.7874 17.9059 12.2731 24.3511L12.1435 25.9741C12.0333 27.3551 11.4903 28.6661 10.5917 29.7205L9.53572 30.9597C5.34194 35.8808 5.34194 43.1189 9.53572 48.0399L10.5917 49.2792C11.4903 50.3335 12.0333 51.6446 12.1435 53.0255L12.2731 54.6486C12.7874 61.0937 17.9054 66.2119 24.3506 66.7261L25.9736 66.8557C27.3546 66.9657 28.6656 67.5088 29.72 68.4074L30.9592 69.4634C35.8804 73.6573 43.1185 73.6573 48.0395 69.4634L49.2788 68.4074C50.3331 67.5088 51.6442 66.9657 53.025 66.8557L54.6482 66.7261C61.0933 66.2119 66.2111 61.0937 66.7256 54.6486L66.855 53.0255C66.9653 51.6446 67.5084 50.3335 68.407 49.2792L69.463 48.0399C73.6566 43.1189 73.6566 35.8808 69.463 30.9597L68.407 29.7205C67.5084 28.6661 66.9653 27.3551 66.855 25.9741L66.7256 24.3511C66.2111 17.9059 61.0933 12.7879 54.6482 12.2736L53.025 12.1441C51.6442 12.0339 50.3331 11.4908 49.2788 10.5922L48.0395 9.5362ZM35.2293 14.5469C37.6898 12.45 41.3087 12.45 43.7695 14.5469L45.0085 15.6029C47.1175 17.4 49.7393 18.4861 52.5013 18.7065L54.1245 18.836C57.347 19.0932 59.9059 21.6522 60.163 24.8748L60.2927 26.4978C60.5129 29.2597 61.5992 31.8817 63.3961 33.9904L64.4524 35.2297C66.5492 37.6903 66.5492 41.3094 64.4524 43.77L63.3961 45.009C61.5992 47.1179 60.5129 49.7401 60.2927 52.5018L60.163 54.1249C59.9059 57.3474 57.347 59.9064 54.1245 60.1635L52.5013 60.2931C49.7393 60.5137 47.1175 61.5996 45.0085 63.3969L43.7695 64.4528C41.3087 66.5496 37.6898 66.5496 35.2293 64.4528L33.99 63.3969C31.8812 61.5996 29.2592 60.5137 26.4973 60.2931L24.8743 60.1635C21.6517 59.9064 19.0927 57.3474 18.8355 54.1249L18.706 52.5018C18.4856 49.7401 17.3995 47.1179 15.6024 45.009L14.5464 43.77C12.4495 41.3094 12.4495 37.6903 14.5464 35.2297L15.6024 33.9904C17.3995 31.8817 18.4856 29.2597 18.706 26.4978L18.8355 24.8748C19.0927 21.6522 21.6517 19.0932 24.8743 18.836L26.4973 18.7065C29.2592 18.4861 31.8812 17.4 33.99 15.6029L35.2293 14.5469ZM51.7018 31.9524C52.9875 30.6669 52.9875 28.5827 51.7018 27.2973C50.4164 26.0118 48.3321 26.0118 47.0467 27.2973L27.2968 47.0472C26.0113 48.3329 26.0113 50.4168 27.2968 51.7022C28.5823 52.988 30.6664 52.988 31.9519 51.7022L51.7018 31.9524ZM36.2076 31.2707C36.2076 33.9977 33.9969 36.208 31.2702 36.208C28.5432 36.208 26.3327 33.9977 26.3327 31.2707C26.3327 28.5437 28.5432 26.3332 31.2702 26.3332C33.9969 26.3332 36.2076 28.5437 36.2076 31.2707ZM47.7284 52.6664C50.4552 52.6664 52.6659 50.456 52.6659 47.7289C52.6659 45.002 50.4552 42.7914 47.7284 42.7914C45.0016 42.7914 42.7909 45.002 42.7909 47.7289C42.7909 50.456 45.0016 52.6664 47.7284 52.6664Z" fill="#42A5F5"/>
</g>
<defs>
<clipPath id="clip0_2_247">
<rect width="79" height="79" fill="white"/>
</clipPath>
</defs>
</svg>
