<svg width="62" height="61" viewBox="0 0 62 61" fill="none" xmlns="http://www.w3.org/2000/svg">
<path d="M15.6886 42.6892C11.8077 42.6892 9.34973 36.6094 9.34973 33.5047C9.34973 30.0119 12.1958 27.1658 15.6886 27.1658C19.1813 27.1658 22.0274 30.0119 22.0274 33.5047C22.0274 36.7389 19.5694 42.6892 15.6886 42.6892Z" fill="#42A5F5"/>
<path d="M1.97603 59.5069C6.37468 60.4126 11.0317 60.8007 15.6887 60.8007C20.3457 60.8007 25.0025 60.4126 29.6595 59.5069L30.6943 59.2483V56.0142C30.6943 53.6857 29.9181 51.2276 28.4953 49.2872C26.9429 47.0882 24.7439 45.6654 22.2859 45.1478C21.2512 44.8892 19.9574 45.2773 18.7932 45.6654C17.7584 45.924 16.7237 46.3121 15.818 46.3121C14.7832 46.3121 13.8776 46.0535 12.8428 45.6654C11.5491 45.2773 10.3848 44.8892 9.35007 45.1478C6.76255 45.6654 4.69306 47.0882 3.14028 49.2872C1.71745 51.2276 0.941284 53.5562 0.941284 56.0142V59.2483L1.97603 59.5069Z" fill="#42A5F5"/>
<path d="M46.9947 15.5234C43.1139 15.5234 40.6559 9.44353 40.6559 6.33885C40.6559 2.8461 43.502 0 46.9947 0C50.4875 0 53.3336 2.8461 53.3336 6.33885C53.3332 9.57304 50.8756 15.5234 46.9947 15.5234Z" fill="#42A5F5"/>
<path d="M33.2822 32.3411C37.6808 33.2468 42.3378 33.6349 46.9949 33.6349C51.6523 33.6349 56.3086 33.2468 60.9652 32.3411L62 32.0825V28.8484C62 26.5199 61.2238 24.0618 59.801 22.1214C58.2486 19.9224 56.0496 18.4996 53.5916 17.982C52.5569 17.7234 51.2631 18.1115 50.0989 18.4996C49.0641 18.7582 48.0294 19.1463 47.1237 19.1463C46.089 19.1463 45.1833 18.8877 44.1485 18.4996C42.8548 18.1115 41.6905 17.7234 40.6558 17.982C38.1978 18.4992 35.9988 19.9224 34.4464 22.1214C33.0236 24.0618 32.2474 26.3904 32.2474 28.8484V32.0825L33.2822 32.3411Z" fill="#42A5F5"/>
<path d="M56.0139 56.2049H46.436V53.0125H52.7673V37.0492H56.0139V56.2049Z" fill="#42A5F5"/>
<path d="M47.6332 59.7966V49.0215L41.6471 54.409L47.6332 59.7966Z" fill="#42A5F5"/>
<path d="M10.1558 23.8796H6.92737V9.51288H21.2941V12.7053H10.1555L10.1558 23.8796Z" fill="#42A5F5"/>
<path d="M20.0969 16.6963V5.92119L26.0831 11.3087L20.0969 16.6963Z" fill="#42A5F5"/>
</svg>
