<svg width="34" height="35" viewBox="0 0 34 35" fill="none" xmlns="http://www.w3.org/2000/svg">
<path d="M24.135 0.5H9.88192C3.69084 0.5 0 4.189 0 10.377V24.606C0 30.811 3.69084 34.5 9.88192 34.5H24.118C30.3091 34.5 33.9999 30.811 33.9999 24.623V10.377C34.0169 4.189 30.3261 0.5 24.135 0.5ZM17.0085 24.096C13.3687 24.096 10.4092 21.138 10.4092 17.5C10.4092 13.862 13.3687 10.904 17.0085 10.904C20.6483 10.904 23.6078 13.862 23.6078 17.5C23.6078 21.138 20.6483 24.096 17.0085 24.096ZM27.0775 8.796C26.9925 9 26.8734 9.187 26.7203 9.357C26.5502 9.51 26.3631 9.629 26.159 9.714C25.9549 9.799 25.7338 9.85 25.5127 9.85C25.0535 9.85 24.6283 9.68 24.3051 9.357C24.152 9.187 24.033 9 23.9479 8.796C23.8629 8.592 23.8119 8.371 23.8119 8.15C23.8119 7.929 23.8629 7.708 23.9479 7.504C24.033 7.283 24.152 7.113 24.3051 6.943C24.6963 6.552 25.2916 6.365 25.8359 6.484C25.9549 6.501 26.057 6.535 26.159 6.586C26.2611 6.62 26.3631 6.671 26.4652 6.739C26.5502 6.79 26.6353 6.875 26.7203 6.943C26.8734 7.113 26.9925 7.283 27.0775 7.504C27.1625 7.708 27.2136 7.929 27.2136 8.15C27.2136 8.371 27.1625 8.592 27.0775 8.796Z" fill="#939393"/>
</svg>
