<svg width="64" height="46" viewBox="0 0 64 46" fill="none" xmlns="http://www.w3.org/2000/svg">
<path fill-rule="evenodd" clip-rule="evenodd" d="M6.40166 23.0039L6.40102 23L6.40166 22.9961C6.4095 22.9448 6.45411 22.655 6.70362 22.0856C6.97814 21.4587 7.42342 20.6688 8.06054 19.7596C9.33334 17.9436 11.2371 15.844 13.6433 13.853C18.4868 9.84518 24.9993 6.57143 32 6.57143C39.0006 6.57143 45.5133 9.84518 50.3568 13.853C52.7629 15.844 54.6666 17.9436 55.9395 19.7596C56.5766 20.6688 57.0218 21.4587 57.2963 22.0856C57.5459 22.655 57.5904 22.9448 57.5984 22.9961L57.599 23L57.5984 23.0039C57.5904 23.0552 57.5459 23.345 57.2963 23.9144C57.0218 24.5413 56.5766 25.3312 55.9395 26.2404C54.6666 28.0564 52.7629 30.156 50.3568 32.1471C45.5133 36.1547 39.0006 39.4286 32 39.4286C24.9993 39.4286 18.4868 36.1547 13.6433 32.1471C11.2371 30.156 9.33334 28.0564 8.06054 26.2404C7.42342 25.3312 6.97814 24.5413 6.70362 23.9144C6.45411 23.345 6.4095 23.0552 6.40166 23.0039ZM32 0C23.0949 0 15.2074 4.1191 9.62739 8.73626C6.82173 11.0578 4.50787 13.5785 2.86595 15.9211C2.0457 17.0913 1.35936 18.2653 0.866624 19.3903C0.395136 20.4667 0 21.7248 0 23C0 24.2752 0.395136 25.5333 0.866624 26.6097C1.35936 27.7347 2.0457 28.9087 2.86595 30.0787C4.50787 32.4215 6.82173 34.9423 9.62739 37.2636C15.2074 41.881 23.0949 46 32 46C40.905 46 48.7926 41.881 54.3725 37.2636C57.1782 34.9423 59.4922 32.4215 61.1341 30.0787C61.9542 28.9087 62.6406 27.7347 63.1334 26.6097C63.6048 25.5333 64 24.2752 64 23C64 21.7248 63.6048 20.4667 63.1334 19.3903C62.6406 18.2653 61.9542 17.0913 61.1341 15.9211C59.4922 13.5785 57.1782 11.0578 54.3725 8.73626C48.7926 4.1191 40.905 0 32 0ZM28.8 23C28.8 21.1853 30.2326 19.7143 32 19.7143C33.7674 19.7143 35.2 21.1853 35.2 23C35.2 24.8147 33.7674 26.2857 32 26.2857C30.2326 26.2857 28.8 24.8147 28.8 23ZM32 13.1429C26.6979 13.1429 22.4 17.5559 22.4 23C22.4 28.4441 26.6979 32.8571 32 32.8571C37.3021 32.8571 41.6 28.4441 41.6 23C41.6 17.5559 37.3021 13.1429 32 13.1429Z" fill="#42A5F5"/>
</svg>
