<svg width="56" height="56" viewBox="0 0 56 56" fill="none" xmlns="http://www.w3.org/2000/svg">
<path fill-rule="evenodd" clip-rule="evenodd" d="M27.9167 0C43.3345 0 55.8333 12.4987 55.8333 27.9167C55.8333 43.3345 43.3345 55.8333 27.9167 55.8333C12.4987 55.8333 0 43.3345 0 27.9167C0 12.4987 12.4987 0 27.9167 0ZM30.7083 5.75611V8.375C30.7083 9.91678 29.4585 11.1667 27.9167 11.1667C26.485 11.1667 25.305 10.089 25.1438 8.70056L25.125 8.375V5.75611C15.2633 6.98586 7.39832 14.6453 5.8575 24.407L5.75611 25.125H8.375C9.91678 25.125 11.1667 26.3748 11.1667 27.9167C11.1667 29.3484 10.089 30.5283 8.70056 30.6896L8.375 30.7083H5.75611C7.12989 41.7251 16.5277 50.25 27.9167 50.25C39.0632 50.25 48.3026 42.084 49.9787 31.4081L50.0772 30.7083H47.4583C45.9165 30.7083 44.6667 29.4585 44.6667 27.9167C44.6667 26.485 45.7443 25.305 47.1328 25.1438L47.4583 25.125H50.0772C49.4541 20.1291 47.1811 15.6456 43.8205 12.2372L37.0524 25.5206L36.6221 26.3421L35.7545 28.0454C34.7241 30.0573 33.5994 32.1039 32.062 33.6413C29.3493 36.3539 24.838 36.6822 21.9945 33.8386C19.1508 30.995 19.4792 26.484 22.1919 23.7713C23.5097 22.4535 25.2015 21.4388 26.925 20.5269L29.491 19.2111L31.8613 17.9741L43.5952 12.0118C40.1869 8.65177 35.7037 6.37904 30.7083 5.75611ZM31.1614 24.6716L30.5752 24.9862L29.9705 25.3012C28.848 25.8834 27.6765 26.4909 26.6986 27.2487L26.137 27.7224L25.9341 27.9572C25.3968 28.6836 25.5582 29.5065 25.9424 29.8907C26.3268 30.2751 27.1495 30.4363 27.8759 29.8989L28.1138 29.6933L28.5845 29.1348C29.1907 28.3524 29.7008 27.4462 30.1786 26.5401L30.5319 25.8626C30.7432 25.4553 30.9509 25.0544 31.1614 24.6716Z" fill="#42A5F5"/>
</svg>
