<svg width="45" height="60" viewBox="0 0 45 60" fill="none" xmlns="http://www.w3.org/2000/svg">
<g clip-path="url(#clip0_33_158)">
<path d="M43.7997 11.6736C43.6842 11.1924 43.3467 10.7944 42.8901 10.6007C42.4335 10.407 41.9119 10.4408 41.484 10.6917C35.874 13.9822 28.9039 13.9824 23.2934 10.6917C22.8038 10.4044 22.1962 10.4044 21.7064 10.6917C16.0963 13.9823 9.12604 13.9823 3.5159 10.6917C3.08821 10.4408 2.56652 10.4073 2.10992 10.6007C1.65333 10.7943 1.31579 11.1924 1.20029 11.6736C-2.83526 28.4852 3.49545 46.0806 17.3285 56.5L21.5566 59.6847C21.8357 59.8949 22.1677 60 22.4999 60C22.832 60 23.1642 59.8948 23.4433 59.6847L27.6714 56.5C41.5045 46.0806 47.8353 28.4852 43.7997 11.6736ZM25.7848 54.0094L22.5 56.4835L19.2153 54.0094C6.91415 44.744 1.00465 29.3639 3.8236 14.3682C9.76732 17.0876 16.686 16.9066 22.5 13.8249C28.3142 16.9066 35.2326 17.0877 41.1764 14.3682C43.9953 29.3639 38.0859 44.744 25.7848 54.0094Z" fill="#42A5F5"/>
<path d="M33.47 22.8748C33.6774 22.819 33.8986 22.8607 34.0737 22.9884C34.2488 23.116 34.36 23.3165 34.3778 23.5365C34.732 27.9276 34.0391 32.3964 32.3744 36.4597C30.5536 40.9035 27.6123 44.7896 23.8684 47.6977L22.9381 48.4203C22.8085 48.521 22.6542 48.5714 22.4999 48.5714C22.3457 48.5714 22.1914 48.521 22.0618 48.4203L21.1314 47.6977C17.3876 44.7897 14.4463 40.9037 12.6255 36.4597C10.9607 32.3964 10.2679 27.9276 10.6221 23.5365C10.6399 23.3166 10.7512 23.116 10.9262 22.9884C11.1012 22.8607 11.3221 22.8191 11.5298 22.8748C12.8604 23.2311 14.2331 23.4118 15.6095 23.4118C17.8603 23.4118 20.1407 22.913 22.2045 21.9692C22.3926 21.8833 22.6072 21.8833 22.7953 21.9692C24.8592 22.913 27.1396 23.4118 29.3903 23.4118C30.7668 23.4118 32.1393 23.2311 33.47 22.8748Z" fill="#42A5F5"/>
</g>
<defs>
<clipPath id="clip0_33_158">
<rect width="45" height="60" fill="white"/>
</clipPath>
</defs>
</svg>
