<svg width="65" height="62" viewBox="0 0 65 62" fill="none" xmlns="http://www.w3.org/2000/svg">
<path d="M34.6522 1.11429L61.9231 16.3539C63.5535 17.1691 64.5834 18.8355 64.5834 20.6583V25.2814C64.5834 27.4963 62.788 29.292 60.573 29.292H58.1667V54.9583H61.3751C63.147 54.9583 64.5834 56.3947 64.5834 58.1667C64.5834 59.9386 63.147 61.375 61.3751 61.375H3.62508C1.85318 61.375 0.416748 59.9386 0.416748 58.1667C0.416748 56.3947 1.85318 54.9583 3.62508 54.9583H6.83341V29.292H4.42716C2.21226 29.292 0.416748 27.4963 0.416748 25.2814V20.6583C0.416748 18.9874 1.28216 17.4479 2.6822 16.575L30.3479 1.11429C31.7028 0.43688 33.2974 0.43688 34.6522 1.11429ZM51.7501 29.292H13.2501V54.9583H22.8751V35.7083H29.2917V54.9583H35.7084V35.7083H42.1251V54.9583H51.7501V29.292ZM32.5001 7.21224L6.83341 21.6497V22.8752H58.1667V21.6497L32.5001 7.21224ZM32.5001 13.25C34.272 13.25 35.7084 14.6864 35.7084 16.4583C35.7084 18.2302 34.272 19.6667 32.5001 19.6667C30.7281 19.6667 29.2917 18.2302 29.2917 16.4583C29.2917 14.6864 30.7281 13.25 32.5001 13.25Z" fill="#42A5F5"/>
</svg>
