<svg width="39" height="31" viewBox="0 0 39 31" fill="none" xmlns="http://www.w3.org/2000/svg">
<path d="M12.2649 31C7.74824 31 3.54175 29.7049 0 27.477C2.0947 27.7259 4.21902 27.568 6.25125 27.0126C8.28349 26.4571 10.1837 25.515 11.8431 24.2401C10.1729 24.2102 8.55429 23.6696 7.21427 22.6942C5.87425 21.7188 4.88011 20.3575 4.37135 18.8013C4.8606 18.895 5.36226 18.9435 5.87455 18.9435C6.60488 18.9435 7.31394 18.8464 7.98932 18.673C6.1788 18.3144 4.55065 17.3548 3.38059 15.9567C2.21052 14.5586 1.57046 12.8079 1.56879 11.0012V10.8989C2.67804 11.5033 3.91936 11.8387 5.18854 11.8768C4.09184 11.1621 3.19293 10.1932 2.57188 9.05641C1.95083 7.91962 1.62694 6.65022 1.62906 5.36133C1.62906 3.93272 2.02791 2.58386 2.71392 1.42918C4.72284 3.84668 7.22925 5.8238 10.0703 7.23214C12.9114 8.64048 16.0237 9.44854 19.2049 9.60381C18.8063 7.92607 18.9843 6.1666 19.7115 4.59784C20.4386 3.02908 21.6743 1.73854 23.2271 0.926048C24.7799 0.113553 26.5633 -0.175573 28.3012 0.10344C30.039 0.382452 31.6343 1.21404 32.8401 2.46943C34.631 2.12271 36.3488 1.48138 37.9205 0.572713C37.3225 2.38448 36.0738 3.92304 34.4053 4.90362C35.9908 4.71848 37.5393 4.30361 39 3.67266C37.9229 5.24204 36.5716 6.61358 35.008 7.72443C35.0222 8.05904 35.0328 8.39712 35.0328 8.7352C35.031 19.0718 26.9815 31.0017 12.2649 31Z" fill="white"/>
</svg>
