<svg aria-hidden="true" style="position: absolute; width: 0; height: 0; overflow: hidden;" version="1.1" xmlns="http://www.w3.org/2000/svg" xmlns:xlink="http://www.w3.org/1999/xlink">
<defs>
<symbol id="icon-bank" viewBox="0 0 32 32">
<path fill="#42a5f5" style="fill: var(--color1, #42a5f5)" d="M17.060 1.287l13.426 7.503c0.803 0.401 1.31 1.222 1.31 2.119v2.276c0 1.090-0.884 1.974-1.974 1.974h-1.185v12.636h1.58c0.872 0 1.579 0.707 1.579 1.58s-0.707 1.579-1.579 1.579h-28.431c-0.872 0-1.579-0.707-1.579-1.579s0.707-1.58 1.579-1.58h1.579v-12.636h-1.185c-1.090 0-1.974-0.884-1.974-1.974v-2.276c0-0.823 0.426-1.581 1.115-2.010l13.62-7.611c0.667-0.334 1.452-0.334 2.119 0zM25.477 15.159h-18.954v12.636h4.738v-9.477h3.159v9.477h3.159v-9.477h3.159v9.477h4.738v-12.636zM16 4.289l-12.636 7.108v0.603h25.272v-0.603l-12.636-7.108zM16 7.262c0.872 0 1.579 0.707 1.579 1.579s-0.707 1.58-1.579 1.58c-0.872 0-1.58-0.707-1.58-1.58s0.707-1.579 1.58-1.579z"></path>
</symbol>
 
<symbol id="icon-eye" viewBox="0 0 64 46" fill="none" xmlns="http://www.w3.org/2000/svg">
<path fill-rule="evenodd" clip-rule="evenodd" d="M6.40166 23.0039L6.40102 23L6.40166 22.9961C6.4095 22.9448 6.45411 22.655 6.70362 22.0856C6.97814 21.4587 7.42342 20.6688 8.06054 19.7596C9.33334 17.9436 11.2371 15.844 13.6433 13.853C18.4868 9.84518 24.9993 6.57143 32 6.57143C39.0006 6.57143 45.5133 9.84518 50.3568 13.853C52.7629 15.844 54.6666 17.9436 55.9395 19.7596C56.5766 20.6688 57.0218 21.4587 57.2963 22.0856C57.5459 22.655 57.5904 22.9448 57.5984 22.9961L57.599 23L57.5984 23.0039C57.5904 23.0552 57.5459 23.345 57.2963 23.9144C57.0218 24.5413 56.5766 25.3312 55.9395 26.2404C54.6666 28.0564 52.7629 30.156 50.3568 32.1471C45.5133 36.1547 39.0006 39.4286 32 39.4286C24.9993 39.4286 18.4868 36.1547 13.6433 32.1471C11.2371 30.156 9.33334 28.0564 8.06054 26.2404C7.42342 25.3312 6.97814 24.5413 6.70362 23.9144C6.45411 23.345 6.4095 23.0552 6.40166 23.0039ZM32 0C23.0949 0 15.2074 4.1191 9.62739 8.73626C6.82173 11.0578 4.50787 13.5785 2.86595 15.9211C2.0457 17.0913 1.35936 18.2653 0.866624 19.3903C0.395136 20.4667 0 21.7248 0 23C0 24.2752 0.395136 25.5333 0.866624 26.6097C1.35936 27.7347 2.0457 28.9087 2.86595 30.0787C4.50787 32.4215 6.82173 34.9423 9.62739 37.2636C15.2074 41.881 23.0949 46 32 46C40.905 46 48.7926 41.881 54.3725 37.2636C57.1782 34.9423 59.4922 32.4215 61.1341 30.0787C61.9542 28.9087 62.6406 27.7347 63.1334 26.6097C63.6048 25.5333 64 24.2752 64 23C64 21.7248 63.6048 20.4667 63.1334 19.3903C62.6406 18.2653 61.9542 17.0913 61.1341 15.9211C59.4922 13.5785 57.1782 11.0578 54.3725 8.73626C48.7926 4.1191 40.905 0 32 0ZM28.8 23C28.8 21.1853 30.2326 19.7143 32 19.7143C33.7674 19.7143 35.2 21.1853 35.2 23C35.2 24.8147 33.7674 26.2857 32 26.2857C30.2326 26.2857 28.8 24.8147 28.8 23ZM32 13.1429C26.6979 13.1429 22.4 17.5559 22.4 23C22.4 28.4441 26.6979 32.8571 32 32.8571C37.3021 32.8571 41.6 28.4441 41.6 23C41.6 17.5559 37.3021 13.1429 32 13.1429Z" fill="#42A5F5"/>
</symbol>

<symbol id="icon-facebook" viewBox="0 0 32 32">
<path d="M24.649 0.006l-4.805-0.006c-4.66 0-7.67 3.089-7.67 7.876v3.629h-4.821v6.567h4.821l-0.006 13.927h6.746l0.006-13.927h5.532l-0.004-6.566h-5.528v-3.079c0-1.481 0.35-2.23 2.276-2.23l3.439-0.001 0.015-6.191z"></path>
</symbol>
<symbol id="icon-instagram" viewBox="0 0 32 32">
<path  d="M22.523 0.457h-13.031c-5.66 0-9.035 3.373-9.035 9.030v13.009c0 5.673 3.374 9.046 9.035 9.046h13.016c5.66 0 9.035-3.373 9.035-9.030v-13.025c0.016-5.658-3.359-9.030-9.019-9.030zM16.008 22.031c-3.328 0-6.034-2.704-6.034-6.031s2.706-6.031 6.034-6.031c3.328 0 6.034 2.704 6.034 6.031s-2.706 6.031-6.034 6.031zM25.214 8.042c-0.078 0.187-0.187 0.357-0.327 0.513-0.156 0.14-0.327 0.249-0.513 0.326s-0.389 0.124-0.591 0.124c-0.42 0-0.809-0.155-1.104-0.451-0.14-0.155-0.249-0.326-0.327-0.513s-0.124-0.389-0.124-0.591 0.047-0.404 0.124-0.591c0.078-0.202 0.187-0.357 0.327-0.513 0.358-0.357 0.902-0.528 1.4-0.42 0.109 0.016 0.202 0.047 0.295 0.093 0.093 0.031 0.187 0.078 0.28 0.14 0.078 0.047 0.156 0.124 0.233 0.186 0.14 0.155 0.249 0.311 0.327 0.513 0.078 0.186 0.124 0.389 0.124 0.591s-0.047 0.404-0.124 0.591z"></path>
</symbol>
 
 <symbol id="icon-manager"  viewBox="0 0 62 61" fill="none" xmlns="http://www.w3.org/2000/svg">
<path d="M15.6886 42.6892C11.8077 42.6892 9.34973 36.6094 9.34973 33.5047C9.34973 30.0119 12.1958 27.1658 15.6886 27.1658C19.1813 27.1658 22.0274 30.0119 22.0274 33.5047C22.0274 36.7389 19.5694 42.6892 15.6886 42.6892Z" fill="#42A5F5"/>
<path d="M1.97603 59.5069C6.37468 60.4126 11.0317 60.8007 15.6887 60.8007C20.3457 60.8007 25.0025 60.4126 29.6595 59.5069L30.6943 59.2483V56.0142C30.6943 53.6857 29.9181 51.2276 28.4953 49.2872C26.9429 47.0882 24.7439 45.6654 22.2859 45.1478C21.2512 44.8892 19.9574 45.2773 18.7932 45.6654C17.7584 45.924 16.7237 46.3121 15.818 46.3121C14.7832 46.3121 13.8776 46.0535 12.8428 45.6654C11.5491 45.2773 10.3848 44.8892 9.35007 45.1478C6.76255 45.6654 4.69306 47.0882 3.14028 49.2872C1.71745 51.2276 0.941284 53.5562 0.941284 56.0142V59.2483L1.97603 59.5069Z" fill="#42A5F5"/>
<path d="M46.9947 15.5234C43.1139 15.5234 40.6559 9.44353 40.6559 6.33885C40.6559 2.8461 43.502 0 46.9947 0C50.4875 0 53.3336 2.8461 53.3336 6.33885C53.3332 9.57304 50.8756 15.5234 46.9947 15.5234Z" fill="#42A5F5"/>
<path d="M33.2822 32.3411C37.6808 33.2468 42.3378 33.6349 46.9949 33.6349C51.6523 33.6349 56.3086 33.2468 60.9652 32.3411L62 32.0825V28.8484C62 26.5199 61.2238 24.0618 59.801 22.1214C58.2486 19.9224 56.0496 18.4996 53.5916 17.982C52.5569 17.7234 51.2631 18.1115 50.0989 18.4996C49.0641 18.7582 48.0294 19.1463 47.1237 19.1463C46.089 19.1463 45.1833 18.8877 44.1485 18.4996C42.8548 18.1115 41.6905 17.7234 40.6558 17.982C38.1978 18.4992 35.9988 19.9224 34.4464 22.1214C33.0236 24.0618 32.2474 26.3904 32.2474 28.8484V32.0825L33.2822 32.3411Z" fill="#42A5F5"/>
<path d="M56.0139 56.2049H46.436V53.0125H52.7673V37.0492H56.0139V56.2049Z" fill="#42A5F5"/>
<path d="M47.6332 59.7966V49.0215L41.6471 54.409L47.6332 59.7966Z" fill="#42A5F5"/>
<path d="M10.1558 23.8796H6.92737V9.51288H21.2941V12.7053H10.1555L10.1558 23.8796Z" fill="#42A5F5"/>
<path d="M20.0969 16.6963V5.92119L26.0831 11.3087L20.0969 16.6963Z" fill="#42A5F5"/>
</symbol>

<symbol  id="icon-shield" viewBox="0 0 45 60" fill="none" xmlns="http://www.w3.org/2000/svg">
<path d="M43.7997 11.6736C43.6842 11.1924 43.3467 10.7944 42.8901 10.6007C42.4335 10.407 41.9119 10.4408 41.484 10.6917C35.874 13.9822 28.9039 13.9824 23.2934 10.6917C22.8038 10.4044 22.1962 10.4044 21.7064 10.6917C16.0963 13.9823 9.12604 13.9823 3.5159 10.6917C3.08821 10.4408 2.56652 10.4073 2.10992 10.6007C1.65333 10.7943 1.31579 11.1924 1.20029 11.6736C-2.83526 28.4852 3.49545 46.0806 17.3285 56.5L21.5566 59.6847C21.8357 59.8949 22.1677 60 22.4999 60C22.832 60 23.1642 59.8948 23.4433 59.6847L27.6714 56.5C41.5045 46.0806 47.8353 28.4852 43.7997 11.6736ZM25.7848 54.0094L22.5 56.4835L19.2153 54.0094C6.91415 44.744 1.00465 29.3639 3.8236 14.3682C9.76732 17.0876 16.686 16.9066 22.5 13.8249C28.3142 16.9066 35.2326 17.0877 41.1764 14.3682C43.9953 29.3639 38.0859 44.744 25.7848 54.0094Z" fill="#42A5F5"/>
<path d="M33.47 22.8748C33.6774 22.819 33.8986 22.8607 34.0737 22.9884C34.2488 23.116 34.36 23.3165 34.3778 23.5365C34.732 27.9276 34.0391 32.3964 32.3744 36.4597C30.5536 40.9035 27.6123 44.7896 23.8684 47.6977L22.9381 48.4203C22.8085 48.521 22.6542 48.5714 22.4999 48.5714C22.3457 48.5714 22.1914 48.521 22.0618 48.4203L21.1314 47.6977C17.3876 44.7897 14.4463 40.9037 12.6255 36.4597C10.9607 32.3964 10.2679 27.9276 10.6221 23.5365C10.6399 23.3166 10.7512 23.116 10.9262 22.9884C11.1012 22.8607 11.3221 22.8191 11.5298 22.8748C12.8604 23.2311 14.2331 23.4118 15.6095 23.4118C17.8603 23.4118 20.1407 22.913 22.2045 21.9692C22.3926 21.8833 22.6072 21.8833 22.7953 21.9692C24.8592 22.913 27.1396 23.4118 29.3903 23.4118C30.7668 23.4118 32.1393 23.2311 33.47 22.8748Z" fill="#42A5F5"/>
</symbol>

<symbol id="icon-speed" viewBox="0 0 56 56" fill="none" xmlns="http://www.w3.org/2000/svg">
<path d="M27.9167 0C43.3345 0 55.8333 12.4987 55.8333 27.9167C55.8333 43.3345 43.3345 55.8333 27.9167 55.8333C12.4987 55.8333 0 43.3345 0 27.9167C0 12.4987 12.4987 0 27.9167 0ZM30.7083 5.75611V8.375C30.7083 9.91678 29.4585 11.1667 27.9167 11.1667C26.485 11.1667 25.305 10.089 25.1438 8.70056L25.125 8.375V5.75611C15.2633 6.98586 7.39832 14.6453 5.8575 24.407L5.75611 25.125H8.375C9.91678 25.125 11.1667 26.3748 11.1667 27.9167C11.1667 29.3484 10.089 30.5283 8.70056 30.6896L8.375 30.7083H5.75611C7.12989 41.7251 16.5277 50.25 27.9167 50.25C39.0632 50.25 48.3026 42.084 49.9787 31.4081L50.0772 30.7083H47.4583C45.9165 30.7083 44.6667 29.4585 44.6667 27.9167C44.6667 26.485 45.7443 25.305 47.1328 25.1438L47.4583 25.125H50.0772C49.4541 20.1291 47.1811 15.6456 43.8205 12.2372L37.0524 25.5206L36.6221 26.3421L35.7545 28.0454C34.7241 30.0573 33.5994 32.1039 32.062 33.6413C29.3493 36.3539 24.838 36.6822 21.9945 33.8386C19.1508 30.995 19.4792 26.484 22.1919 23.7713C23.5097 22.4535 25.2015 21.4388 26.925 20.5269L29.491 19.2111L31.8613 17.9741L43.5952 12.0118C40.1869 8.65177 35.7037 6.37904 30.7083 5.75611ZM31.1614 24.6716L30.5752 24.9862L29.9705 25.3012C28.848 25.8834 27.6765 26.4909 26.6986 27.2487L26.137 27.7224L25.9341 27.9572C25.3968 28.6836 25.5582 29.5065 25.9424 29.8907C26.3268 30.2751 27.1495 30.4363 27.8759 29.8989L28.1138 29.6933L28.5845 29.1348C29.1907 28.3524 29.7008 27.4462 30.1786 26.5401L30.5319 25.8626C30.7432 25.4553 30.9509 25.0544 31.1614 24.6716Z" fill="#42A5F5"/>
</symbol>

<symbol id="icon-starr" viewBox="0 0 32 32">
<path  d="M16 1.185l3.592 11.056h11.625l-9.405 6.833 3.592 11.056-9.405-6.833-9.405 6.833 3.592-11.056-9.405-6.833h11.625l3.592-11.056z"></path>
</symbol>
<symbol id="icon-telegram" viewBox="0 0 32 32">
<path  d="M29.84 2.579l-28.346 11.078c-1.935 0.788-1.923 1.881-0.355 2.369l7.278 2.301 16.838-10.767c0.796-0.491 1.524-0.227 0.926 0.311l-13.642 12.48-0.502 7.603c0.735 0 1.060-0.342 1.472-0.745l3.535-3.484 7.353 5.504c1.356 0.757 2.329 0.368 2.667-1.272l4.827-23.054c0.494-2.008-0.756-2.917-2.050-2.324z"></path>
</symbol>
<symbol id="icon-zero-commisions" viewBox="0 0 32 32">
<path fill="#42a5f5" style="fill: var(--color1, #42a5f5)" d="M19.459 3.863c-1.993-1.699-4.925-1.699-6.919 0l-0.502 0.428c-0.427 0.364-0.958 0.584-1.518 0.629l-0.657 0.052c-2.611 0.208-4.684 2.281-4.892 4.892l-0.053 0.657c-0.045 0.559-0.265 1.090-0.629 1.518l-0.428 0.502c-1.699 1.993-1.699 4.925 0 6.919l0.428 0.502c0.364 0.427 0.584 0.958 0.629 1.518l0.053 0.657c0.208 2.611 2.281 4.684 4.892 4.892l0.657 0.052c0.559 0.045 1.090 0.265 1.518 0.629l0.502 0.428c1.993 1.699 4.925 1.699 6.919 0l0.502-0.428c0.427-0.364 0.958-0.584 1.517-0.629l0.657-0.052c2.611-0.208 4.684-2.281 4.892-4.892l0.052-0.657c0.045-0.559 0.265-1.090 0.629-1.518l0.428-0.502c1.699-1.993 1.699-4.925 0-6.919l-0.428-0.502c-0.364-0.427-0.584-0.958-0.629-1.518l-0.052-0.657c-0.208-2.611-2.281-4.684-4.892-4.892l-0.657-0.052c-0.559-0.045-1.090-0.265-1.517-0.629l-0.502-0.428zM14.27 5.892c0.997-0.849 2.463-0.849 3.459 0l0.502 0.428c0.854 0.728 1.916 1.168 3.035 1.257l0.657 0.052c1.305 0.104 2.342 1.141 2.446 2.446l0.053 0.657c0.089 1.119 0.529 2.181 1.257 3.035l0.428 0.502c0.849 0.997 0.849 2.463 0 3.459l-0.428 0.502c-0.728 0.854-1.168 1.916-1.257 3.035l-0.053 0.657c-0.104 1.305-1.141 2.342-2.446 2.446l-0.657 0.052c-1.119 0.089-2.181 0.529-3.035 1.257l-0.502 0.428c-0.997 0.849-2.463 0.849-3.459 0l-0.502-0.428c-0.854-0.728-1.916-1.168-3.035-1.257l-0.657-0.052c-1.305-0.104-2.342-1.141-2.446-2.446l-0.052-0.657c-0.089-1.119-0.529-2.181-1.257-3.035l-0.428-0.502c-0.849-0.997-0.849-2.463 0-3.459l0.428-0.502c0.728-0.854 1.168-1.916 1.257-3.035l0.052-0.657c0.104-1.305 1.141-2.342 2.446-2.446l0.657-0.052c1.119-0.089 2.181-0.529 3.035-1.257l0.502-0.428zM20.942 12.943c0.521-0.521 0.521-1.365 0-1.886s-1.365-0.521-1.886 0l-8 8c-0.521 0.521-0.521 1.365 0 1.886s1.365 0.521 1.886 0l8-8zM14.666 12.667c0 1.105-0.895 2-2 2s-2-0.895-2-2 0.895-2 2-2c1.104 0 2 0.895 2 2zM19.333 21.333c1.105 0 2-0.895 2-2s-0.895-2-2-2-2 0.895-2 2c0 1.105 0.895 2 2 2z"></path>
</symbol>
<symbol id="icon-twitter" viewBox="0 0 32 32">
<path d="M10.063 28.718c-3.706 0-7.157-1.063-10.063-2.891 1.719 0.204 3.462 0.075 5.129-0.381s3.227-1.229 4.588-2.275c-1.37-0.025-2.699-0.468-3.798-1.268s-1.915-1.917-2.333-3.194c0.401 0.077 0.813 0.117 1.233 0.117 0.599 0 1.181-0.080 1.735-0.222-1.486-0.294-2.821-1.082-3.782-2.229s-1.485-2.584-1.487-4.066v-0.084c0.91 0.496 1.929 0.771 2.97 0.802-0.9-0.586-1.637-1.381-2.147-2.314s-0.775-1.974-0.774-3.032c0-1.172 0.327-2.279 0.89-3.226 1.648 1.984 3.705 3.606 6.036 4.761s4.885 1.819 7.495 1.946c-0.327-1.377-0.181-2.82 0.416-4.107s1.611-2.346 2.885-3.013 2.737-0.904 4.163-0.675c1.426 0.229 2.735 0.911 3.724 1.941 1.469-0.285 2.879-0.811 4.169-1.556-0.491 1.487-1.515 2.749-2.884 3.554 1.301-0.152 2.572-0.492 3.77-1.010-0.884 1.288-1.993 2.413-3.276 3.325 0.012 0.275 0.020 0.552 0.020 0.829-0.001 8.481-6.606 18.27-18.681 18.269z"></path>
</symbol>
<symbol  id="icon-arrow-down"  viewBox="0 0 11 7" fill="none" xmlns="http://www.w3.org/2000/svg">
<path fill-rule="evenodd" clip-rule="evenodd" d="M0.979736 1.02034L1.68684 0.313232L5.99347 4.61986L10.1401 0.319715L10.86 1.01386L6.00644 6.04704L0.979736 1.02034Z" fill="#42A5F5"/>
</symbol>

<symbol id="icon-phone"  viewBox="0 0 21 21"   xmlns="http://www.w3.org/2000/svg">
<path d="M20.7749 15.9263C19.9931 14.4483 17.2785 12.8457 17.159 12.7756C16.8102 12.577 16.4462 12.4719 16.1056 12.4719C15.5991 12.4719 15.1845 12.704 14.9334 13.126C14.5363 13.601 14.0438 14.1563 13.9243 14.2423C12.9993 14.87 12.2752 14.7987 11.474 13.9974L7.00253 9.52485C6.2064 8.72862 6.13321 7.99546 6.75649 7.07541C6.84369 6.95509 7.39883 6.46217 7.87378 6.06463C8.17666 5.88436 8.38455 5.61648 8.47564 5.28787C8.59672 4.85062 8.50757 4.33628 8.22182 3.83517C8.15447 3.71992 6.55132 1.00454 5.07431 0.223102C4.79869 0.0770928 4.48802 0 4.17658 0C3.66348 0 3.18075 0.20013 2.81792 0.562622L1.82987 1.55042C0.267215 3.11291 -0.298441 4.8841 0.147699 6.81454C0.519872 8.42336 1.60447 10.1354 3.3719 11.9027L9.09658 17.6282C11.3335 19.8654 13.4661 21 15.4352 21C15.4352 21 15.4352 21 15.4356 21C16.8838 21 18.2339 20.3844 19.4473 19.1708L20.435 18.183C21.0353 17.583 21.1716 16.6758 20.7749 15.9263Z"/>
</symbol>

<symbol id="icon-email"  viewBox="0 0 21 15"   xmlns="http://www.w3.org/2000/svg">
<path d="M0 3.47168V11.0174L5.38986 7.51408L0 3.47168Z" />
<path d="M20.572 11.0174V3.47168L15.1821 7.51408L20.572 11.0174Z"/>
<path d="M10.286 11.1863L6.70426 8.5L0 12.8578V14.4007H20.572V12.8578L13.8677 8.5L10.286 11.1863Z"/>
<path d="M0 1.5429L10.286 9.25739L20.572 1.5429V0H0V1.5429Z"/>
</symbol>

</defs>
</svg>
