<svg width="172" height="42" viewBox="0 0 172 42" fill="none" xmlns="http://www.w3.org/2000/svg">
<g clip-path="url(#clip0_33_52)">
<path d="M47.0098 13.8038H63.0227V16.8209H56.7178V33.8287H53.2619V16.8209H46.9834L47.0098 13.8038ZM62.3368 19.3307H65.2914V22.1342H65.3441C65.4497 21.7337 65.6343 21.3599 65.8981 20.9861C66.1619 20.6123 66.4785 20.2652 66.8742 19.9715C67.2435 19.6511 67.6656 19.4108 68.1404 19.2239C68.5889 19.037 69.0638 18.9302 69.5386 18.9302C69.9079 18.9302 70.1717 18.9569 70.3036 18.9569C70.4355 18.9836 70.5938 19.0103 70.7257 19.0103V22.0808C70.5147 22.0274 70.2773 22.0007 70.0398 21.974C69.8024 21.9473 69.5914 21.9206 69.3539 21.9206C68.8263 21.9206 68.3251 22.0274 67.8503 22.241C67.3754 22.4546 66.9797 22.775 66.6104 23.1755C66.2674 23.6027 65.9773 24.11 65.7662 24.7241C65.5552 25.3382 65.4497 26.0591 65.4497 26.86V33.7486H62.284L62.3368 19.3307ZM85.2349 33.8287H82.122V31.7995H82.0693C81.6736 32.5471 81.0932 33.1078 80.3282 33.5617C79.5631 34.0156 78.7717 34.2292 77.9803 34.2292C76.1073 34.2292 74.7355 33.7753 73.8914 32.8141C73.0472 31.8796 72.6251 30.4378 72.6251 28.5421V19.3307H75.7908V28.2217C75.7908 29.5033 76.0282 30.4111 76.5294 30.9184C77.0043 31.4524 77.6901 31.7194 78.5607 31.7194C79.2202 31.7194 79.7742 31.6126 80.2227 31.399C80.6711 31.1854 81.0405 30.9184 81.3043 30.5713C81.5944 30.2242 81.7791 29.797 81.911 29.3164C82.0429 28.8358 82.0957 28.3018 82.0957 27.7411V19.3307H85.2613V33.8287H85.2349ZM90.6165 29.1829C90.722 30.1174 91.065 30.7582 91.6717 31.1587C92.2785 31.5325 93.0171 31.7194 93.8613 31.7194C94.1515 31.7194 94.4944 31.6927 94.8638 31.6393C95.2331 31.5859 95.6024 31.5058 95.919 31.3723C96.2619 31.2388 96.5257 31.0519 96.7368 30.7849C96.9478 30.5179 97.0533 30.1975 97.0269 29.797C97.0006 29.3965 96.8687 29.0494 96.5785 28.7824C96.2883 28.5154 95.9454 28.3285 95.5233 28.1416C95.1012 27.9814 94.6 27.8479 94.046 27.7411C93.492 27.6343 92.938 27.5008 92.3576 27.3673C91.7773 27.2338 91.1969 27.0736 90.6429 26.8868C90.0889 26.6999 89.6141 26.4595 89.1656 26.1124C88.7435 25.7921 88.3742 25.3916 88.1368 24.8843C87.873 24.377 87.7411 23.7896 87.7411 23.042C87.7411 22.241 87.9257 21.6002 88.3214 21.0662C88.6908 20.5322 89.192 20.105 89.7723 19.7846C90.3527 19.4642 91.0122 19.2239 91.7245 19.0904C92.4368 18.9569 93.1227 18.9035 93.7558 18.9035C94.4944 18.9035 95.2067 18.9836 95.8662 19.1438C96.5257 19.304 97.1589 19.5443 97.6865 19.9181C98.2404 20.2652 98.6889 20.7458 99.0319 21.3065C99.4012 21.8672 99.6122 22.5614 99.7177 23.3624H96.4202C96.2619 22.5881 95.919 22.0808 95.3914 21.8138C94.8374 21.5468 94.2306 21.4133 93.5184 21.4133C93.3073 21.4133 93.0171 21.44 92.727 21.4667C92.4104 21.5201 92.1466 21.5735 91.8564 21.6803C91.5926 21.7871 91.3552 21.9473 91.1705 22.1342C90.9858 22.3211 90.8803 22.5881 90.8803 22.9085C90.8803 23.309 91.0122 23.6027 91.276 23.843C91.5398 24.0833 91.8828 24.2702 92.3312 24.4571C92.7533 24.6173 93.2546 24.7508 93.8085 24.8576C94.3625 24.9644 94.9429 25.0979 95.5233 25.2314C96.1036 25.3649 96.6576 25.5251 97.2116 25.712C97.7656 25.8989 98.2668 26.1392 98.6889 26.4863C99.111 26.8067 99.4803 27.2071 99.7441 27.6877C100.008 28.1683 100.14 28.7824 100.14 29.4766C100.14 30.331 99.9552 31.0519 99.5595 31.666C99.1638 32.2534 98.6625 32.7607 98.0558 33.1345C97.449 33.5083 96.7368 33.7753 95.9981 33.9622C95.2331 34.1224 94.4944 34.2292 93.7558 34.2292C92.8589 34.2292 92.0147 34.1224 91.2496 33.9088C90.4846 33.6952 89.7987 33.3748 89.2447 32.9743C88.6908 32.5471 88.2423 32.0398 87.9257 31.399C87.6092 30.7849 87.4245 30.0373 87.3981 29.1562H90.5901V29.1829H90.6165ZM101.037 19.3307H103.437V14.9519H106.603V19.304H109.452V21.6803H106.603V29.4232C106.603 29.7703 106.629 30.0373 106.656 30.3043C106.682 30.5446 106.761 30.7582 106.84 30.9184C106.946 31.0786 107.104 31.2121 107.289 31.2922C107.5 31.3723 107.764 31.4257 108.133 31.4257C108.344 31.4257 108.582 31.4257 108.793 31.399C109.004 31.3723 109.241 31.3456 109.452 31.2922V33.7753C109.109 33.8287 108.766 33.8554 108.423 33.8821C108.08 33.9355 107.764 33.9355 107.394 33.9355C106.55 33.9355 105.891 33.8554 105.39 33.6952C104.888 33.535 104.493 33.2947 104.202 33.001C103.912 32.6806 103.728 32.3068 103.622 31.8529C103.517 31.399 103.464 30.8383 103.437 30.2509V21.707H101.037V19.2773V19.3307ZM111.668 19.3307H114.649V21.3065H114.702C115.15 20.4521 115.757 19.8647 116.548 19.4909C117.34 19.1171 118.184 18.9302 119.134 18.9302C120.268 18.9302 121.244 19.1171 122.088 19.5443C122.932 19.9448 123.618 20.4788 124.172 21.1997C124.726 21.8939 125.148 22.7216 125.412 23.6561C125.676 24.5906 125.834 25.6052 125.834 26.6464C125.834 27.6343 125.702 28.5688 125.465 29.4766C125.201 30.3844 124.832 31.2121 124.331 31.9063C123.829 32.6005 123.196 33.1612 122.405 33.5884C121.613 34.0156 120.717 34.2292 119.661 34.2292C119.213 34.2292 118.738 34.1758 118.29 34.0957C117.841 34.0156 117.393 33.8821 116.971 33.6952C116.548 33.5083 116.153 33.268 115.81 32.9743C115.44 32.6806 115.15 32.3335 114.913 31.9597H114.86V39.1954H111.694V19.3307H111.668ZM122.721 26.5931C122.721 25.9523 122.642 25.3115 122.458 24.6974C122.299 24.0833 122.036 23.5493 121.693 23.0687C121.35 22.5881 120.928 22.2143 120.453 21.9206C119.951 21.6269 119.371 21.4934 118.738 21.4934C117.419 21.4934 116.417 21.9473 115.731 22.8818C115.071 23.8163 114.728 25.0712 114.728 26.6198C114.728 27.3673 114.807 28.0348 114.992 28.6489C115.177 29.263 115.414 29.797 115.783 30.2509C116.126 30.7048 116.548 31.0519 117.05 31.3189C117.551 31.5859 118.105 31.7194 118.764 31.7194C119.503 31.7194 120.083 31.5592 120.585 31.2655C121.086 30.9718 121.482 30.5713 121.824 30.1174C122.141 29.6368 122.378 29.1028 122.51 28.4887C122.642 27.8479 122.721 27.2338 122.721 26.5931ZM128.288 13.8038H131.453V16.8209H128.288V13.8038ZM128.288 19.3307H131.453V33.8287H128.288V19.3307ZM134.276 13.8038H137.442V33.8287H134.276V13.8038ZM147.097 34.2292C145.963 34.2292 144.934 34.0423 144.037 33.6418C143.14 33.2413 142.401 32.734 141.768 32.0665C141.161 31.399 140.686 30.5713 140.37 29.6368C140.053 28.7023 139.869 27.661 139.869 26.5663C139.869 25.4717 140.027 24.4571 140.37 23.5226C140.686 22.5881 141.161 21.7871 141.768 21.0929C142.375 20.4254 143.14 19.8914 144.037 19.5176C144.934 19.1438 145.963 18.9302 147.097 18.9302C148.231 18.9302 149.26 19.1171 150.157 19.5176C151.054 19.8914 151.793 20.4254 152.426 21.0929C153.032 21.7604 153.507 22.5881 153.824 23.5226C154.14 24.4571 154.325 25.4717 154.325 26.5663C154.325 27.6877 154.167 28.7023 153.824 29.6368C153.481 30.5713 153.032 31.3723 152.426 32.0665C151.819 32.734 151.054 33.268 150.157 33.6418C149.26 34.0156 148.258 34.2292 147.097 34.2292ZM147.097 31.6927C147.783 31.6927 148.416 31.5325 148.917 31.2388C149.445 30.9451 149.84 30.5446 150.183 30.064C150.526 29.5834 150.764 29.0227 150.922 28.4353C151.08 27.8212 151.159 27.2071 151.159 26.5663C151.159 25.9523 151.08 25.3382 150.922 24.7241C150.764 24.11 150.526 23.576 150.183 23.0954C149.84 22.6148 149.418 22.241 148.917 21.9473C148.39 21.6536 147.783 21.4934 147.097 21.4934C146.411 21.4934 145.778 21.6536 145.277 21.9473C144.749 22.241 144.353 22.6415 144.01 23.0954C143.667 23.576 143.43 24.11 143.272 24.7241C143.113 25.3382 143.034 25.9523 143.034 26.5663C143.034 27.2071 143.113 27.8212 143.272 28.4353C143.43 29.0494 143.667 29.5834 144.01 30.064C144.353 30.5446 144.775 30.9451 145.277 31.2388C145.804 31.5592 146.411 31.6927 147.097 31.6927ZM155.275 19.3307H157.675V14.9519H160.841V19.304H163.69V21.6803H160.841V29.4232C160.841 29.7703 160.867 30.0373 160.894 30.3043C160.92 30.5446 160.999 30.7582 161.078 30.9184C161.184 31.0786 161.342 31.2121 161.527 31.2922C161.738 31.3723 162.002 31.4257 162.371 31.4257C162.582 31.4257 162.82 31.4257 163.031 31.399C163.242 31.3723 163.479 31.3456 163.69 31.2922V33.7753C163.347 33.8287 163.004 33.8554 162.661 33.8821C162.318 33.9355 162.002 33.9355 161.632 33.9355C160.788 33.9355 160.129 33.8554 159.628 33.6952C159.126 33.535 158.731 33.2947 158.44 33.001C158.15 32.6806 157.966 32.3068 157.86 31.8529C157.755 31.399 157.702 30.8383 157.675 30.2509V21.707H155.275V19.2773V19.3307Z" fill="black"/>
<path d="M43.3165 13.8038H28.8337L24.3754 -0.133484L19.8908 13.8038L5.40796 13.7771L17.1208 22.4012L12.6362 36.3385L24.3491 27.7144L36.0619 36.3385L31.6037 22.4012L43.3165 13.8038Z" fill="#00B67A"/>
<path d="M32.6062 25.5518L31.6037 22.4012L24.3755 27.7144L32.6062 25.5518Z" fill="#005128"/>
</g>
<defs>
<clipPath id="clip0_33_52">
<rect width="172" height="42" fill="white"/>
</clipPath>
</defs>
</svg>
