<svg width="65" height="69" viewBox="0 0 65 69" fill="none" xmlns="http://www.w3.org/2000/svg">
<path d="M3.0771 60.1864H4.02321L2.52093 64.5954H1.49926L0 60.1864H0.946101L1.77734 62.8098C1.82369 62.9648 1.87105 63.1459 1.91941 63.3529C1.96979 63.5577 2.00103 63.7008 2.01311 63.7811C2.03528 63.5963 2.11085 63.2726 2.23982 62.8098L3.0771 60.1864ZM7.28774 64.5954L6.96733 63.5459H5.35621L5.03581 64.5954H4.02623L5.58593 60.1679H6.73152L8.2973 64.5954H7.28774ZM6.74365 62.7615C6.44738 61.8108 6.28014 61.2729 6.24186 61.1484C6.20559 61.0233 6.17939 60.925 6.16329 60.8524C6.09679 61.1098 5.90633 61.7465 5.59196 62.7615H6.74365ZM12.7769 64.5954H11.586L9.66354 61.2595H9.63635C9.67463 61.8489 9.69377 62.2689 9.69377 62.5206V64.5954H8.85651V60.1864H10.0384L11.9578 63.4887H11.9789C11.9487 62.9154 11.9336 62.5103 11.9336 62.273V60.1864H12.7769V64.5954ZM17.4893 60.1864V63.0394C17.4893 63.3647 17.4158 63.6504 17.2686 63.8959C17.1236 64.1409 16.913 64.3287 16.6369 64.4595C16.3608 64.5902 16.0344 64.6556 15.6576 64.6556C15.0893 64.6556 14.648 64.5109 14.3336 64.2212C14.0193 63.9298 13.8621 63.532 13.8621 63.027V60.1864H14.7961V62.8855C14.7961 63.2252 14.8646 63.4743 15.0016 63.6334C15.1387 63.7919 15.3654 63.8717 15.6817 63.8717C15.988 63.8717 16.2097 63.7919 16.3467 63.6334C16.4858 63.4723 16.5553 63.2211 16.5553 62.8793V60.1864H17.4893ZM21.2767 64.5954L20.9563 63.5459H19.3452L19.0248 64.5954H18.0153L19.575 60.1679H20.7206L22.2863 64.5954H21.2767ZM20.7327 62.7615C20.4364 61.8108 20.2692 61.2729 20.2309 61.1484C20.1946 61.0233 20.1684 60.925 20.1523 60.8524C20.0858 61.1098 19.8954 61.7465 19.581 62.7615H20.7327ZM24.5503 64.5954H23.6133V60.9641H22.4133V60.1864H25.7503V60.9641H24.5503V64.5954ZM30.0274 60.1864V63.0394C30.0274 63.3647 29.9539 63.6504 29.8068 63.8959C29.6617 64.1409 29.4511 64.3287 29.175 64.4595C28.899 64.5902 28.5725 64.6556 28.1957 64.6556C27.6274 64.6556 27.1861 64.5109 26.8717 64.2212C26.5574 63.9298 26.4002 63.532 26.4002 63.027V60.1864H27.3342V62.8855C27.3342 63.2252 27.4027 63.4743 27.5398 63.6334C27.6768 63.7919 27.9035 63.8717 28.2199 63.8717C28.5262 63.8717 28.7479 63.7919 28.8849 63.6334C29.0239 63.4723 29.0934 63.2211 29.0934 62.8793V60.1864H30.0274ZM33.6396 64.5954H32.7176V60.1864H35.2506V60.9523H33.6396V62.0893H35.1388V62.852H33.6396V64.5954ZM36.1151 64.5954V60.1864H37.0522V64.5954H36.1151ZM42.085 64.5954H40.894L38.9716 61.2595H38.9444C38.9827 61.8489 39.0018 62.2689 39.0018 62.5206V64.5954H38.1645V60.1864H39.3464L41.2658 63.4887H41.287C41.2567 62.9154 41.2416 62.5103 41.2416 62.273V60.1864H42.085V64.5954ZM45.9056 64.5954L45.5852 63.5459H43.9742L43.6537 64.5954H42.6442L44.2039 60.1679H45.3495L46.9153 64.5954H45.9056ZM45.3615 62.7615C45.0653 61.8108 44.8981 61.2729 44.8598 61.1484C44.8235 61.0233 44.7973 60.925 44.7812 60.8524C44.7147 61.1098 44.5243 61.7465 44.2099 62.7615H45.3615ZM51.3949 64.5954H50.2039L48.2815 61.2595H48.2543C48.2926 61.8489 48.3117 62.2689 48.3117 62.5206V64.5954H47.4744V60.1864H48.6563L50.5757 63.4887H50.5969C50.5667 62.9154 50.5515 62.5103 50.5515 62.273V60.1864H51.3949V64.5954ZM54.3875 60.9008C54.0346 60.9008 53.7617 61.0336 53.5683 61.2992C53.3748 61.5622 53.2778 61.9302 53.2778 62.4027C53.2778 63.3858 53.6477 63.8773 54.3875 63.8773C54.6975 63.8773 55.0736 63.8001 55.5146 63.6452V64.4296C55.152 64.5804 54.747 64.6556 54.2998 64.6556C53.657 64.6556 53.1654 64.4615 52.8244 64.0734C52.4839 63.6833 52.3137 63.1248 52.3137 62.3965C52.3137 61.9384 52.3972 61.5375 52.5649 61.1937C52.732 60.8478 52.9719 60.5832 53.284 60.4005C53.5982 60.2152 53.966 60.1226 54.3875 60.1226C54.8167 60.1226 55.2479 60.2265 55.6813 60.4334L55.379 61.1937C55.2134 61.1149 55.0473 61.0465 54.8801 60.9883C54.713 60.9301 54.5484 60.9008 54.3875 60.9008ZM56.4577 64.5954V60.1864H57.395V64.5954H56.4577ZM61.2125 64.5954L60.8921 63.5459H59.281L58.9607 64.5954H57.9511L59.5106 60.1679H60.6564L62.222 64.5954H61.2125ZM60.6687 62.7615C60.3721 61.8108 60.205 61.2729 60.1668 61.1484C60.1307 61.0233 60.1044 60.925 60.0884 60.8524C60.0218 61.1098 59.831 61.7465 59.5168 62.7615H60.6687ZM62.7812 64.5954V60.1864H63.7186V63.8233H65.5107V64.5954H62.7812Z" fill="#BFBFBF"/>
<path d="M8.71947 68.0062C8.71947 67.947 8.71044 67.8945 8.69229 67.8477C8.67567 67.7993 8.64395 67.7555 8.59705 67.7164C8.55021 67.6758 8.48449 67.6356 8.39984 67.5965C8.31523 67.5574 8.20561 67.5167 8.07112 67.4745C7.92152 67.4261 7.77945 67.3721 7.64491 67.3119C7.51192 67.2511 7.39404 67.1811 7.29128 67.1013C7.19001 67.02 7.1099 66.9258 7.05098 66.8188C6.99351 66.7112 6.96483 66.5872 6.96483 66.4451C6.96483 66.3082 6.99506 66.1836 7.05552 66.0719C7.11593 65.9592 7.20059 65.8624 7.30938 65.7827C7.41823 65.7013 7.54669 65.6386 7.69479 65.5948C7.84445 65.5511 8.00839 65.5294 8.18673 65.5294C8.43007 65.5294 8.6424 65.5732 8.82378 65.6607C9.00516 65.7477 9.14569 65.8676 9.24546 66.0199C9.34672 66.1723 9.39733 66.3468 9.39733 66.5424H8.72174C8.72174 66.4461 8.70136 66.3617 8.66056 66.2891C8.62125 66.2155 8.56079 66.1574 8.47918 66.1152C8.39906 66.073 8.29785 66.0519 8.17543 66.0519C8.0575 66.0519 7.95928 66.0699 7.88071 66.1059C7.8021 66.1409 7.74318 66.1883 7.70387 66.2485C7.66456 66.3072 7.64491 66.3735 7.64491 66.4477C7.64491 66.5033 7.65853 66.5537 7.68571 66.599C7.71445 66.6443 7.75675 66.6865 7.81267 66.7256C7.86859 66.7652 7.93736 66.8018 8.01897 66.8368C8.10058 66.8713 8.19504 66.9052 8.30239 66.9382C8.48222 66.9927 8.64013 67.054 8.77617 67.1214C8.9137 67.1894 9.02858 67.2655 9.12077 67.3499C9.21296 67.4344 9.2825 67.5301 9.32934 67.6371C9.37618 67.7442 9.3996 67.8657 9.3996 68.0016C9.3996 68.1447 9.37164 68.2728 9.31572 68.386C9.2598 68.4993 9.17896 68.595 9.07315 68.6733C8.96735 68.7515 8.84117 68.8112 8.69455 68.8519C8.54794 68.8925 8.384 68.9131 8.20262 68.9131C8.0394 68.9131 7.87844 68.892 7.71976 68.8498C7.56103 68.806 7.41674 68.7402 7.28674 68.6527C7.15829 68.5657 7.05552 68.454 6.9784 68.3181C6.90133 68.1822 6.86279 68.0216 6.86279 67.8363H7.54519C7.54519 67.9388 7.56103 68.0258 7.5928 68.0963C7.62453 68.1673 7.6691 68.2244 7.72652 68.2682C7.78548 68.3119 7.85502 68.3438 7.93509 68.3634C8.0167 68.383 8.10589 68.3927 8.20262 68.3927C8.3205 68.3927 8.41722 68.3763 8.4928 68.3428C8.56987 68.3099 8.62656 68.2641 8.66283 68.2049C8.70059 68.1462 8.71947 68.0798 8.71947 68.0062ZM12.0769 68.3387V68.8678H10.32V68.3387H12.0769ZM10.5422 65.5747V68.8678H9.86208V65.5747H10.5422ZM11.848 66.9155V67.4313H10.32V66.9155H11.848ZM12.0747 65.5747V66.1059H10.32V65.5747H12.0747ZM12.4737 65.5747H13.7047C13.9571 65.5747 14.174 65.6123 14.3553 65.6874C14.5382 65.7631 14.6787 65.8748 14.777 66.0225C14.8752 66.1702 14.9243 66.3519 14.9243 66.5676C14.9243 66.7436 14.8941 66.8955 14.8337 67.0221C14.7747 67.1472 14.6908 67.2522 14.582 67.3366C14.4747 67.4194 14.3485 67.4858 14.2034 67.5358L13.988 67.6485H12.918L12.9135 67.1194H13.7092C13.8286 67.1194 13.9276 67.0983 14.0062 67.0561C14.0848 67.0138 14.1437 66.9552 14.183 66.8795C14.2238 66.8044 14.2442 66.7169 14.2442 66.617C14.2442 66.5115 14.2246 66.4204 14.1853 66.3437C14.146 66.2665 14.0863 66.2078 14.0062 66.1672C13.9261 66.1265 13.8256 66.1059 13.7047 66.1059H13.1538V68.8678H12.4737V65.5747ZM14.319 68.8678L13.5664 67.3999L14.285 67.3952L15.0468 68.8359V68.8678H14.319ZM16.5929 68.1802L17.3705 65.5747H18.1276L16.9782 68.8678H16.4795L16.5929 68.1802ZM15.8765 65.5747L16.6518 68.1802L16.7697 68.8678H16.2664L15.1238 65.5747H15.8765ZM19.1591 65.5747V68.8678H18.4813V65.5747H19.1591ZM21.7095 67.7751H22.3874C22.3738 67.9969 22.3126 68.1935 22.2037 68.3655C22.0964 68.5374 21.946 68.6717 21.7526 68.7685C21.5606 68.8647 21.3294 68.9131 21.0589 68.9131C20.8473 68.9131 20.6576 68.8771 20.4899 68.8045C20.3221 68.7304 20.1785 68.6249 20.0591 68.488C19.9413 68.3505 19.8513 68.1848 19.7893 67.9902C19.7274 67.7957 19.6964 67.578 19.6964 67.3366V67.108C19.6964 66.8666 19.7282 66.6489 19.7916 66.4544C19.8566 66.2583 19.9488 66.0915 20.0682 65.9546C20.1891 65.8172 20.3334 65.7116 20.5012 65.638C20.6689 65.5639 20.8564 65.5269 21.0634 65.5269C21.3385 65.5269 21.5705 65.5768 21.7594 65.6761C21.9498 65.776 22.0972 65.9129 22.2015 66.0879C22.3073 66.2629 22.3707 66.4621 22.3919 66.6849H21.7118C21.7043 66.5521 21.6778 66.4399 21.6324 66.3478C21.5871 66.2547 21.5183 66.1846 21.4261 66.1378C21.3355 66.0894 21.2145 66.0652 21.0634 66.0652C20.95 66.0652 20.8511 66.0863 20.7664 66.1285C20.6818 66.1708 20.6108 66.2351 20.5533 66.321C20.4959 66.407 20.4528 66.5156 20.4241 66.6469C20.3969 66.776 20.3833 66.9284 20.3833 67.1034V67.3366C20.3833 67.5069 20.3962 67.6567 20.4218 67.7864C20.4475 67.9146 20.4868 68.0232 20.5397 68.1122C20.5941 68.1997 20.6637 68.2661 20.7483 68.3114C20.8344 68.3552 20.938 68.3768 21.0589 68.3768C21.201 68.3768 21.3181 68.3541 21.4103 68.3094C21.5024 68.2641 21.5728 68.1966 21.6211 68.1076C21.671 68.0191 21.7004 67.9079 21.7095 67.7751ZM25.0489 68.3387V68.8678H23.2919V68.3387H25.0489ZM23.5141 65.5747V68.8678H22.834V65.5747H23.5141ZM24.8199 66.9155V67.4313H23.2919V66.9155H24.8199ZM25.0466 65.5747V66.1059H23.2919V65.5747H25.0466ZM27.1639 68.0062C27.1639 67.947 27.1549 67.8945 27.1368 67.8477C27.1201 67.7993 27.0884 67.7555 27.0415 67.7164C26.9947 67.6758 26.929 67.6356 26.8443 67.5965C26.7597 67.5574 26.6501 67.5167 26.5156 67.4745C26.366 67.4261 26.2239 67.3721 26.0894 67.3119C25.9564 67.2511 25.8385 67.1811 25.7358 67.1013C25.6345 67.02 25.5544 66.9258 25.4955 66.8188C25.438 66.7112 25.4093 66.5872 25.4093 66.4451C25.4093 66.3082 25.4395 66.1836 25.5 66.0719C25.5605 65.9592 25.6451 65.8624 25.7539 65.7827C25.8627 65.7013 25.9912 65.6386 26.1393 65.5948C26.2889 65.5511 26.4529 65.5294 26.6312 65.5294C26.8745 65.5294 27.0869 65.5732 27.2683 65.6607C27.4496 65.7477 27.5902 65.8676 27.6899 66.0199C27.7912 66.1723 27.8418 66.3468 27.8418 66.5424H27.1662C27.1662 66.4461 27.1458 66.3617 27.105 66.2891C27.0657 66.2155 27.0053 66.1574 26.9237 66.1152C26.8436 66.073 26.7423 66.0519 26.6199 66.0519C26.502 66.0519 26.4038 66.0699 26.3252 66.1059C26.2466 66.1409 26.1877 66.1883 26.1483 66.2485C26.109 66.3072 26.0894 66.3735 26.0894 66.4477C26.0894 66.5033 26.103 66.5537 26.1302 66.599C26.1589 66.6443 26.2012 66.6865 26.2571 66.7256C26.3131 66.7652 26.3818 66.8018 26.4634 66.8368C26.545 66.8713 26.6395 66.9052 26.7469 66.9382C26.9267 66.9927 27.0846 67.054 27.2206 67.1214C27.3582 67.1894 27.4731 67.2655 27.5652 67.3499C27.6574 67.4344 27.727 67.5301 27.7738 67.6371C27.8207 67.7442 27.8441 67.8657 27.8441 68.0016C27.8441 68.1447 27.8161 68.2728 27.7602 68.386C27.7043 68.4993 27.6234 68.595 27.5176 68.6733C27.4118 68.7515 27.2856 68.8112 27.139 68.8519C26.9924 68.8925 26.8285 68.9131 26.6471 68.9131C26.4839 68.9131 26.3229 68.892 26.1642 68.8498C26.0055 68.806 25.8612 68.7402 25.7312 68.6527C25.6028 68.5657 25.5 68.454 25.4229 68.3181C25.3458 68.1822 25.3073 68.0216 25.3073 67.8363H25.9897C25.9897 67.9388 26.0055 68.0258 26.0373 68.0963C26.069 68.1673 26.1136 68.2244 26.171 68.2682C26.23 68.3119 26.2995 68.3438 26.3796 68.3634C26.4612 68.383 26.5504 68.3927 26.6471 68.3927C26.765 68.3927 26.8617 68.3763 26.9373 68.3428C27.0143 68.3099 27.071 68.2641 27.1073 68.2049C27.1451 68.1462 27.1639 68.0798 27.1639 68.0062ZM31.3761 67.7751H32.054C32.0403 67.9969 31.9791 68.1935 31.8703 68.3655C31.763 68.5374 31.6126 68.6717 31.4192 68.7685C31.2272 68.8647 30.996 68.9131 30.7255 68.9131C30.5139 68.9131 30.3242 68.8771 30.1564 68.8045C29.9887 68.7304 29.8451 68.6249 29.7257 68.488C29.6078 68.3505 29.5179 68.1848 29.4559 67.9902C29.394 67.7957 29.363 67.578 29.363 67.3366V67.108C29.363 66.8666 29.3947 66.6489 29.4582 66.4544C29.5232 66.2583 29.6154 66.0915 29.7347 65.9546C29.8557 65.8172 30 65.7116 30.1678 65.638C30.3355 65.5639 30.5229 65.5269 30.73 65.5269C31.0051 65.5269 31.2371 65.5768 31.426 65.6761C31.6164 65.776 31.7638 65.9129 31.868 66.0879C31.9738 66.2629 32.0373 66.4621 32.0584 66.6849H31.3784C31.3708 66.5521 31.3444 66.4399 31.299 66.3478C31.2537 66.2547 31.1849 66.1846 31.0927 66.1378C31.002 66.0894 30.8811 66.0652 30.73 66.0652C30.6166 66.0652 30.5176 66.0863 30.433 66.1285C30.3484 66.1708 30.2773 66.2351 30.2199 66.321C30.1625 66.407 30.1194 66.5156 30.0907 66.6469C30.0635 66.776 30.0499 66.9284 30.0499 67.1034V67.3366C30.0499 67.5069 30.0627 67.6567 30.0884 67.7864C30.1141 67.9146 30.1534 68.0232 30.2063 68.1122C30.2607 68.1997 30.3302 68.2661 30.4149 68.3114C30.501 68.3552 30.6046 68.3768 30.7255 68.3768C30.8675 68.3768 30.9847 68.3541 31.0768 68.3094C31.169 68.2641 31.2393 68.1966 31.2877 68.1076C31.3376 68.0191 31.367 67.9079 31.3761 67.7751ZM35.2119 67.1441V67.3005C35.2119 67.5507 35.1779 67.7751 35.1099 67.9743C35.0418 68.1735 34.9459 68.3428 34.822 68.4833C34.698 68.6218 34.5499 68.7283 34.3776 68.8024C34.2069 68.876 34.0172 68.9131 33.8086 68.9131C33.6016 68.9131 33.4119 68.876 33.2396 68.8024C33.0688 68.7283 32.9207 68.6218 32.7953 68.4833C32.6698 68.3428 32.5723 68.1735 32.5028 67.9743C32.4348 67.7751 32.4008 67.5507 32.4008 67.3005V67.1441C32.4008 66.8924 32.4348 66.668 32.5028 66.4703C32.5708 66.2711 32.6668 66.1013 32.7907 65.9613C32.9161 65.8213 33.0643 65.7142 33.235 65.6401C33.4073 65.566 33.597 65.5294 33.8041 65.5294C34.0126 65.5294 34.2023 65.566 34.3731 65.6401C34.5454 65.7142 34.6935 65.8213 34.8174 65.9613C34.9429 66.1013 35.0396 66.2711 35.1076 66.4703C35.1772 66.668 35.2119 66.8924 35.2119 67.1441ZM34.525 67.3005V67.1399C34.525 66.9649 34.5091 66.811 34.4774 66.6783C34.4456 66.5455 34.3988 66.4338 34.3368 66.3437C34.2748 66.2531 34.1993 66.1852 34.1101 66.1399C34.0209 66.093 33.9189 66.0699 33.8041 66.0699C33.6892 66.0699 33.5872 66.093 33.498 66.1399C33.4103 66.1852 33.3355 66.2531 33.2736 66.3437C33.2131 66.4338 33.1671 66.5455 33.1353 66.6783C33.1036 66.811 33.0877 66.9649 33.0877 67.1399V67.3005C33.0877 67.4735 33.1036 67.6274 33.1353 67.7617C33.1671 67.8945 33.2139 68.0067 33.2759 68.0988C33.3378 68.1894 33.4134 68.2579 33.5026 68.3047C33.5917 68.3516 33.6938 68.3747 33.8086 68.3747C33.9235 68.3747 34.0255 68.3516 34.1147 68.3047C34.2038 68.2579 34.2787 68.1894 34.3391 68.0988C34.3995 68.0067 34.4456 67.8945 34.4774 67.7617C34.5091 67.6274 34.525 67.4735 34.525 67.3005ZM36.0121 65.5747H36.588L37.4359 67.9923L38.2837 65.5747H38.8595L37.6671 68.8678H37.2046L36.0121 65.5747ZM35.7016 65.5747H36.2751L36.3794 67.9316V68.8678H35.7016V65.5747ZM38.5966 65.5747H39.1724V68.8678H38.4923V67.9316L38.5966 65.5747ZM40.0792 65.5747H40.655L41.5029 67.9923L42.3507 65.5747H42.9265L41.7341 68.8678H41.2716L40.0792 65.5747ZM39.7686 65.5747H40.3422L40.4464 67.9316V68.8678H39.7686V65.5747ZM42.6636 65.5747H43.2394V68.8678H42.5593V67.9316L42.6636 65.5747ZM44.5588 65.5747V68.8678H43.881V65.5747H44.5588ZM46.9142 68.0062C46.9142 67.947 46.9052 67.8945 46.8871 67.8477C46.8704 67.7993 46.8387 67.7555 46.7918 67.7164C46.745 67.6758 46.6792 67.6356 46.5946 67.5965C46.51 67.5574 46.4004 67.5167 46.2659 67.4745C46.1162 67.4261 45.9742 67.3721 45.8397 67.3119C45.7067 67.2511 45.5888 67.1811 45.4861 67.1013C45.3848 67.02 45.3047 66.9258 45.2457 66.8188C45.1883 66.7112 45.1596 66.5872 45.1596 66.4451C45.1596 66.3082 45.1898 66.1836 45.2502 66.0719C45.3107 65.9592 45.3954 65.8624 45.5042 65.7827C45.613 65.7013 45.7415 65.6386 45.8896 65.5948C46.0392 65.5511 46.2032 65.5294 46.3815 65.5294C46.6248 65.5294 46.8372 65.5732 47.0186 65.6607C47.1999 65.7477 47.3405 65.8676 47.4402 66.0199C47.5414 66.1723 47.5921 66.3468 47.5921 66.5424H46.9165C46.9165 66.4461 46.8961 66.3617 46.8553 66.2891C46.816 66.2155 46.7556 66.1574 46.674 66.1152C46.5938 66.073 46.4926 66.0519 46.3702 66.0519C46.2523 66.0519 46.1541 66.0699 46.0754 66.1059C45.9969 66.1409 45.9379 66.1883 45.8986 66.2485C45.8593 66.3072 45.8397 66.3735 45.8397 66.4477C45.8397 66.5033 45.8533 66.5537 45.8805 66.599C45.9092 66.6443 45.9515 66.6865 46.0074 66.7256C46.0634 66.7652 46.1321 66.8018 46.2137 66.8368C46.2954 66.8713 46.3898 66.9052 46.4971 66.9382C46.6769 66.9927 46.8349 67.054 46.9709 67.1214C47.1085 67.1894 47.2233 67.2655 47.3155 67.3499C47.4077 67.4344 47.4772 67.5301 47.5241 67.6371C47.571 67.7442 47.5944 67.8657 47.5944 68.0016C47.5944 68.1447 47.5664 68.2728 47.5105 68.386C47.4546 68.4993 47.3737 68.595 47.2679 68.6733C47.1621 68.7515 47.0359 68.8112 46.8893 68.8519C46.7427 68.8925 46.5787 68.9131 46.3974 68.9131C46.2341 68.9131 46.0732 68.892 45.9145 68.8498C45.7558 68.806 45.6115 68.7402 45.4815 68.6527C45.353 68.5657 45.2502 68.454 45.1732 68.3181C45.0961 68.1822 45.0576 68.0216 45.0576 67.8363H45.7399C45.7399 67.9388 45.7558 68.0258 45.7875 68.0963C45.8193 68.1673 45.8639 68.2244 45.9213 68.2682C45.9803 68.3119 46.0497 68.3438 46.1299 68.3634C46.2115 68.383 46.3007 68.3927 46.3974 68.3927C46.5153 68.3927 46.612 68.3763 46.6876 68.3428C46.7646 68.3099 46.8213 68.2641 46.8576 68.2049C46.8954 68.1462 46.9142 68.0798 46.9142 68.0062ZM49.7752 68.0062C49.7752 67.947 49.7661 67.8945 49.748 67.8477C49.7314 67.7993 49.6996 67.7555 49.6528 67.7164C49.606 67.6758 49.5402 67.6356 49.4556 67.5965C49.3709 67.5574 49.2614 67.5167 49.1269 67.4745C48.9772 67.4261 48.8352 67.3721 48.7007 67.3119C48.5677 67.2511 48.4498 67.1811 48.347 67.1013C48.2458 67.02 48.1656 66.9258 48.1067 66.8188C48.0493 66.7112 48.0205 66.5872 48.0205 66.4451C48.0205 66.3082 48.0508 66.1836 48.1112 66.0719C48.1717 65.9592 48.2563 65.8624 48.3651 65.7827C48.4739 65.7013 48.6024 65.6386 48.7505 65.5948C48.9002 65.5511 49.0641 65.5294 49.2425 65.5294C49.4858 65.5294 49.6982 65.5732 49.8795 65.6607C50.0609 65.7477 50.2014 65.8676 50.3012 66.0199C50.4024 66.1723 50.4531 66.3468 50.4531 66.5424H49.7775C49.7775 66.4461 49.7571 66.3617 49.7163 66.2891C49.677 66.2155 49.6165 66.1574 49.5349 66.1152C49.4548 66.073 49.3535 66.0519 49.2311 66.0519C49.1133 66.0519 49.015 66.0699 48.9364 66.1059C48.8578 66.1409 48.7989 66.1883 48.7596 66.2485C48.7203 66.3072 48.7007 66.3735 48.7007 66.4477C48.7007 66.5033 48.7143 66.5537 48.7415 66.599C48.7702 66.6443 48.8125 66.6865 48.8684 66.7256C48.9243 66.7652 48.9931 66.8018 49.0747 66.8368C49.1563 66.8713 49.2508 66.9052 49.3581 66.9382C49.5379 66.9927 49.6959 67.054 49.8319 67.1214C49.9695 67.1894 50.0843 67.2655 50.1765 67.3499C50.2687 67.4344 50.3382 67.5301 50.385 67.6371C50.4319 67.7442 50.4554 67.8657 50.4554 68.0016C50.4554 68.1447 50.4274 68.2728 50.3715 68.386C50.3156 68.4993 50.2347 68.595 50.1289 68.6733C50.0231 68.7515 49.8969 68.8112 49.7503 68.8519C49.6037 68.8925 49.4397 68.9131 49.2584 68.9131C49.0951 68.9131 48.9341 68.892 48.7755 68.8498C48.6168 68.806 48.4724 68.7402 48.3425 68.6527C48.214 68.5657 48.1112 68.454 48.0342 68.3181C47.9571 68.1822 47.9185 68.0216 47.9185 67.8363H48.6009C48.6009 67.9388 48.6168 68.0258 48.6485 68.0963C48.6802 68.1673 48.7249 68.2244 48.7823 68.2682C48.8412 68.3119 48.9107 68.3438 48.9908 68.3634C49.0725 68.383 49.1616 68.3927 49.2584 68.3927C49.3763 68.3927 49.473 68.3763 49.5486 68.3428C49.6256 68.3099 49.6823 68.2641 49.7185 68.2049C49.7563 68.1462 49.7752 68.0798 49.7752 68.0062ZM51.641 65.5747V68.8678H50.9631V65.5747H51.641ZM54.9895 67.1441V67.3005C54.9895 67.5507 54.9555 67.7751 54.8874 67.9743C54.8193 68.1735 54.7233 68.3428 54.5995 68.4833C54.4757 68.6218 54.3277 68.7283 54.1553 68.8024C53.9841 68.876 53.7948 68.9131 53.5863 68.9131C53.379 68.9131 53.1891 68.876 53.0168 68.8024C52.8461 68.7283 52.698 68.6218 52.5727 68.4833C52.4473 68.3428 52.3498 68.1735 52.2802 67.9743C52.2121 67.7751 52.1785 67.5507 52.1785 67.3005V67.1441C52.1785 66.8924 52.2121 66.668 52.2802 66.4703C52.3482 66.2711 52.4442 66.1013 52.568 65.9613C52.6939 65.8213 52.8419 65.7142 53.0127 65.6401C53.185 65.566 53.3743 65.5294 53.5817 65.5294C53.7901 65.5294 53.9799 65.566 54.1507 65.6401C54.323 65.7142 54.4711 65.8213 54.5949 65.9613C54.7202 66.1013 54.8172 66.2711 54.8853 66.4703C54.9544 66.668 54.9895 66.8924 54.9895 67.1441ZM54.3024 67.3005V67.1399C54.3024 66.9649 54.2864 66.811 54.2549 66.6783C54.2229 66.5455 54.1765 66.4338 54.1141 66.3437C54.0522 66.2531 53.9769 66.1852 53.8876 66.1399C53.7984 66.093 53.6962 66.0699 53.5817 66.0699C53.4667 66.0699 53.3645 66.093 53.2753 66.1399C53.1881 66.1852 53.1133 66.2531 53.0509 66.3437C52.9905 66.4338 52.9446 66.5455 52.9126 66.6783C52.8811 66.811 52.8652 66.9649 52.8652 67.1399V67.3005C52.8652 67.4735 52.8811 67.6274 52.9126 67.7617C52.9446 67.8945 52.9915 68.0067 53.0534 68.0988C53.1154 68.1894 53.1907 68.2579 53.2799 68.3047C53.3692 68.3516 53.4713 68.3747 53.5863 68.3747C53.7009 68.3747 53.803 68.3516 53.8923 68.3047C53.9815 68.2579 54.0563 68.1894 54.1167 68.0988C54.177 68.0067 54.2229 67.8945 54.2549 67.7617C54.2864 67.6274 54.3024 67.4735 54.3024 67.3005ZM58.1652 65.5747V68.8678H57.4853L56.159 66.6602V68.8678H55.4791V65.5747H56.159L57.4879 67.7844V65.5747H58.1652Z" fill="#BFBFBF"/>
<path d="M5.67455 65.8311H0.206299V67.0149H5.67455V65.8311Z" fill="#BFBFBF"/>
<path d="M5.67455 67.8384H0.206299V68.456H5.67455V67.8384Z" fill="#BFBFBF"/>
<path d="M65 65.8311H59.5317V67.0149H65V65.8311Z" fill="#BFBFBF"/>
<path d="M65 67.8384H59.5317V68.456H65V67.8384Z" fill="#BFBFBF"/>
<path fill-rule="evenodd" clip-rule="evenodd" d="M34.3751 48.1328C47.6967 48.1328 58.4958 37.3579 58.4958 24.0664C58.4958 10.7749 47.6967 0 34.3751 0C25.2901 0 17.3782 5.01128 13.2646 12.4145L29.6412 47.6695C31.1719 47.9734 32.7549 48.1328 34.3751 48.1328Z" fill="#D3D3D3"/>
<path fill-rule="evenodd" clip-rule="evenodd" d="M58.4953 24.5936C58.291 35.4138 50.9601 44.4313 41.0537 47.2733L55.1483 11.8955C57.3526 15.6095 58.583 19.961 58.4953 24.5936Z" fill="#BFBFBF"/>
<path fill-rule="evenodd" clip-rule="evenodd" d="M13.2175 12.6138C11.6773 15.2601 10.6427 18.2079 10.2349 21.332L-3.76587 41.7444L10.2616 27.5595C10.5517 29.6501 11.12 31.6514 11.9284 33.5296L11.91 33.5387L4.07207 45.6545L13.3604 36.3239C14.2335 37.7794 15.2605 39.137 16.4195 40.377L11.6892 48.2429L17.8381 41.7763C19.2727 43.0813 20.8675 44.2236 22.5898 45.174L20.0791 51.382L24.779 46.248C25.9648 46.7606 27.1988 47.1869 28.4722 47.5188L13.2175 12.6138Z" fill="#BFBFBF"/>
<path fill-rule="evenodd" clip-rule="evenodd" d="M13.6332 11.9491L39.5876 11.8955L37.7929 18.6621H29.8849V22.409H36.4468L34.596 29.0079H32.1283L35.1569 37.5081L43.9061 11.8955H55.1923L55.3816 12.2258L41.198 47.1682C39.0512 47.796 36.7801 48.1328 34.4305 48.1328C32.3074 48.1328 30.2485 47.8579 28.2875 47.3417L13.2219 12.6826C13.3548 12.4355 13.4919 12.1909 13.6332 11.9491Z" fill="#E9E9E9"/>
</svg>
