<svg width="125" height="50" viewBox="0 0 125 50" fill="none" xmlns="http://www.w3.org/2000/svg">
<g clip-path="url(#clip0_2_4)">
<path d="M42.6624 12.4993H45.0325L51.635 28.3765H48.4184L46.8101 24.2383H40.9694L39.3612 28.3765H36.1445L42.6624 12.4993ZM45.7097 21.4513L43.9321 16.8063L42.1545 21.4513H45.7097Z" fill="#379CFF"/>
<path d="M53.328 12.499H57.7297C65.0093 12.499 66.279 17.3973 66.279 20.5221C66.279 22.2111 65.8558 28.3762 57.8143 28.3762H53.328V12.499ZM57.7297 25.5892C59.338 25.5892 63.3164 25.4203 63.3164 20.6065C63.3164 15.6238 59.1687 15.4549 57.5604 15.4549H56.2907V25.5892H57.7297Z" fill="#379CFF"/>
<path d="M68.3952 12.499H72.9662C78.299 12.499 78.9761 16.046 78.9761 17.5662C78.9761 20.0998 77.2832 22.2956 74.6591 22.5489L79.1454 28.3762H75.5056L71.3579 22.5489H71.2732V28.3762H68.3105V12.499H68.3952ZM71.3579 20.0998H73.1355C73.8126 20.0998 76.0981 20.0154 76.0981 17.7352C76.0981 15.4549 73.8126 15.3704 73.1355 15.3704H71.3579V20.0998Z" fill="#379CFF"/>
<path d="M96.8368 20.6065C96.8368 25.167 93.1969 28.883 88.4567 28.883C83.7164 28.883 80.0765 25.2514 80.0765 20.6065C80.0765 16.0461 83.7164 12.3302 88.4567 12.3302C93.1969 12.3302 96.8368 15.9616 96.8368 20.6065ZM93.8741 20.5221C93.8741 17.5662 91.5886 15.1171 88.4567 15.1171C85.3247 15.1171 83.0392 17.5662 83.0392 20.5221C83.0392 23.5624 85.4094 26.0115 88.4567 26.0115C91.5886 25.9271 93.8741 23.4779 93.8741 20.5221Z" fill="#379CFF"/>
<path d="M27.5104 0H23.532V33.9501H27.5104V0Z" fill="#379CFF"/>
<path d="M21.5851 15.6238H17.6067V44.0844H21.5851V15.6238Z" fill="#269AFF"/>
<path d="M15.7445 13.5125H11.7661V33.95H15.7445V13.5125Z" fill="#2196F3"/>
<path d="M9.81899 7.76965H5.84058V23.3935H9.81899V7.76965Z" fill="#42A5F5"/>
<path d="M3.97841 18.0729H0V28.714H3.97841V18.0729Z" fill="#64B5F6"/>
<path d="M100.904 12.531H109.03V15.4024H103.866V19.0339H108.776V21.9053H103.866V28.4082H100.904V12.531Z" fill="#F44336"/>
<path d="M115.379 20.4696L109.876 12.531H113.347L117.156 18.0205L120.965 12.531H124.436L118.934 20.4696L124.436 28.4082H120.881L117.071 22.9187L113.262 28.4082H109.876L115.379 20.4696Z" fill="#F44336"/>
</g>
<path d="M36.4902 31.4112V30.6182H42.0266V31.4112H39.7053V38H38.8114V31.4112H36.4902ZM44.1414 34.6695V38H43.2908V30.6182H44.1414V33.3287H44.2135C44.3433 33.0427 44.5379 32.8157 44.7974 32.6475C45.0594 32.4769 45.4078 32.3915 45.8427 32.3915C46.22 32.3915 46.5504 32.4672 46.8339 32.6186C47.1175 32.7676 47.3374 32.9971 47.4935 33.3071C47.6521 33.6146 47.7314 34.0063 47.7314 34.4821V38H46.8808V34.5398C46.8808 34.1 46.7667 33.76 46.5384 33.5197C46.3125 33.277 45.9989 33.1557 45.5976 33.1557C45.3189 33.1557 45.069 33.2146 44.8479 33.3323C44.6292 33.45 44.4562 33.6219 44.3289 33.8477C44.2039 34.0736 44.1414 34.3475 44.1414 34.6695ZM51.6089 38.1153C51.0754 38.1153 50.6153 37.9976 50.2284 37.7621C49.8439 37.5242 49.5472 37.1926 49.3381 36.7673C49.1314 36.3396 49.0281 35.8422 49.0281 35.2751C49.0281 34.708 49.1314 34.2082 49.3381 33.7756C49.5472 33.3407 49.8379 33.0019 50.2104 32.7592C50.5852 32.5141 51.0226 32.3915 51.5224 32.3915C51.8107 32.3915 52.0955 32.4396 52.3766 32.5357C52.6578 32.6318 52.9137 32.788 53.1443 33.0043C53.375 33.2182 53.5589 33.5017 53.6958 33.8549C53.8328 34.2082 53.9013 34.6431 53.9013 35.1597V35.5202H49.6337V34.7849H53.0362C53.0362 34.4725 52.9737 34.1937 52.8488 33.9487C52.7262 33.7036 52.5508 33.5101 52.3225 33.3683C52.0967 33.2266 51.8299 33.1557 51.5224 33.1557C51.1835 33.1557 50.8904 33.2398 50.6429 33.408C50.3978 33.5738 50.2092 33.7901 50.077 34.0568C49.9448 34.3235 49.8788 34.6095 49.8788 34.9146V35.4048C49.8788 35.8229 49.9508 36.1774 50.095 36.4681C50.2416 36.7565 50.4446 36.9763 50.7042 37.1277C50.9637 37.2767 51.2652 37.3512 51.6089 37.3512C51.8323 37.3512 52.0342 37.32 52.2144 37.2575C52.397 37.1926 52.5544 37.0965 52.6866 36.9691C52.8187 36.8394 52.9209 36.6784 52.993 36.4862L53.8148 36.7168C53.7283 36.9956 53.5829 37.2407 53.3786 37.4521C53.1744 37.6612 52.9221 37.8246 52.6217 37.9423C52.3213 38.0577 51.9837 38.1153 51.6089 38.1153ZM58.468 38H57.5309L60.2414 30.6182H61.1641L63.8747 38H62.9375L60.7316 31.786H60.6739L58.468 38ZM58.8141 35.1165H62.5915V35.9094H58.8141V35.1165ZM64.9091 38V32.4636H65.7309V33.2999H65.7886C65.8895 33.0259 66.0721 32.8037 66.3365 32.633C66.6008 32.4624 66.8987 32.3771 67.2304 32.3771C67.2928 32.3771 67.3709 32.3783 67.4646 32.3807C67.5584 32.3831 67.6292 32.3867 67.6773 32.3915V33.2566C67.6485 33.2494 67.5824 33.2386 67.4791 33.2242C67.3781 33.2073 67.2712 33.1989 67.1583 33.1989C66.8891 33.1989 66.6488 33.2554 66.4374 33.3683C66.2283 33.4789 66.0625 33.6327 65.94 33.8297C65.8198 34.0243 65.7598 34.2466 65.7598 34.4965V38H64.9091ZM71.4403 32.4636V33.1845H68.5712V32.4636H71.4403ZM69.4074 31.1372H70.258V36.4141C70.258 36.6544 70.2929 36.8346 70.3626 36.9547C70.4347 37.0725 70.526 37.1518 70.6365 37.1926C70.7495 37.2311 70.8684 37.2503 70.9933 37.2503C71.0871 37.2503 71.164 37.2455 71.224 37.2359C71.2841 37.2239 71.3322 37.2142 71.3682 37.207L71.5412 37.9712C71.4835 37.9928 71.403 38.0144 71.2997 38.036C71.1964 38.0601 71.0654 38.0721 70.9068 38.0721C70.6665 38.0721 70.4311 38.0204 70.2004 37.9171C69.9721 37.8138 69.7823 37.6564 69.6309 37.4449C69.4819 37.2335 69.4074 36.9667 69.4074 36.6447V31.1372ZM77.8237 38.1153C77.3239 38.1153 76.8853 37.9964 76.5081 37.7585C76.1332 37.5206 75.8401 37.1878 75.6286 36.7601C75.4196 36.3324 75.315 35.8326 75.315 35.2607C75.315 34.6839 75.4196 34.1805 75.6286 33.7504C75.8401 33.3203 76.1332 32.9863 76.5081 32.7484C76.8853 32.5105 77.3239 32.3915 77.8237 32.3915C78.3235 32.3915 78.7608 32.5105 79.1357 32.7484C79.513 32.9863 79.8061 33.3203 80.0152 33.7504C80.2266 34.1805 80.3324 34.6839 80.3324 35.2607C80.3324 35.8326 80.2266 36.3324 80.0152 36.7601C79.8061 37.1878 79.513 37.5206 79.1357 37.7585C78.7608 37.9964 78.3235 38.1153 77.8237 38.1153ZM77.8237 37.3512C78.2034 37.3512 78.5157 37.2539 78.7608 37.0593C79.0059 36.8646 79.1874 36.6087 79.3051 36.2915C79.4228 35.9743 79.4817 35.6307 79.4817 35.2607C79.4817 34.8906 79.4228 34.5458 79.3051 34.2262C79.1874 33.9066 79.0059 33.6483 78.7608 33.4512C78.5157 33.2542 78.2034 33.1557 77.8237 33.1557C77.444 33.1557 77.1316 33.2542 76.8865 33.4512C76.6414 33.6483 76.46 33.9066 76.3423 34.2262C76.2245 34.5458 76.1657 34.8906 76.1657 35.2607C76.1657 35.6307 76.2245 35.9743 76.3423 36.2915C76.46 36.6087 76.6414 36.8646 76.8865 37.0593C77.1316 37.2539 77.444 37.3512 77.8237 37.3512ZM84.0963 32.4636V33.1845H81.1118V32.4636H84.0963ZM82.0057 38V31.6995C82.0057 31.3823 82.0802 31.118 82.2292 30.9065C82.3782 30.6951 82.5716 30.5365 82.8095 30.4308C83.0474 30.325 83.2985 30.2722 83.5628 30.2722C83.7719 30.2722 83.9425 30.289 84.0746 30.3226C84.2068 30.3563 84.3053 30.3875 84.3702 30.4163L84.1251 31.1516C84.0818 31.1372 84.0218 31.1192 83.9449 31.0976C83.8704 31.0759 83.7719 31.0651 83.6493 31.0651C83.3682 31.0651 83.1651 31.136 83.0402 31.2778C82.9176 31.4196 82.8563 31.6274 82.8563 31.9013V38H82.0057ZM87.8547 31.4112V30.6182H93.3911V31.4112H91.0699V38H90.176V31.4112H87.8547ZM94.0805 38V32.4636H94.9023V33.2999H94.9599C95.0609 33.0259 95.2435 32.8037 95.5078 32.633C95.7721 32.4624 96.0701 32.3771 96.4017 32.3771C96.4642 32.3771 96.5423 32.3783 96.636 32.3807C96.7297 32.3831 96.8006 32.3867 96.8486 32.3915V33.2566C96.8198 33.2494 96.7537 33.2386 96.6504 33.2242C96.5495 33.2073 96.4425 33.1989 96.3296 33.1989C96.0605 33.1989 95.8202 33.2554 95.6087 33.3683C95.3997 33.4789 95.2339 33.6327 95.1113 33.8297C94.9912 34.0243 94.9311 34.2466 94.9311 34.4965V38H94.0805ZM99.4862 38.1298C99.1353 38.1298 98.8169 38.0637 98.531 37.9315C98.245 37.797 98.018 37.6035 97.8498 37.3512C97.6816 37.0965 97.5974 36.7889 97.5974 36.4285C97.5974 36.1113 97.6599 35.8542 97.7849 35.6571C97.9098 35.4577 98.0768 35.3015 98.2859 35.1886C98.4949 35.0756 98.7256 34.9915 98.9779 34.9363C99.2326 34.8786 99.4886 34.8329 99.7457 34.7993C100.082 34.756 100.355 34.7236 100.564 34.702C100.775 34.6779 100.929 34.6383 101.025 34.583C101.124 34.5278 101.173 34.4316 101.173 34.2947V34.2658C101.173 33.9102 101.076 33.6339 100.881 33.4368C100.689 33.2398 100.397 33.1413 100.005 33.1413C99.5991 33.1413 99.2807 33.2302 99.05 33.408C98.8193 33.5858 98.6571 33.7756 98.5634 33.9775L97.756 33.6891C97.9002 33.3527 98.0925 33.0908 98.3327 32.9034C98.5754 32.7135 98.8398 32.5814 99.1257 32.5069C99.4141 32.43 99.6976 32.3915 99.9764 32.3915C100.154 32.3915 100.358 32.4132 100.589 32.4564C100.822 32.4973 101.047 32.5826 101.263 32.7123C101.482 32.8421 101.663 33.0379 101.807 33.2999C101.952 33.5618 102.024 33.9126 102.024 34.3523V38H101.173V37.2503H101.13C101.072 37.3704 100.976 37.499 100.841 37.636C100.707 37.7729 100.528 37.8895 100.304 37.9856C100.081 38.0817 99.8081 38.1298 99.4862 38.1298ZM99.6159 37.3656C99.9523 37.3656 100.236 37.2995 100.467 37.1674C100.7 37.0352 100.875 36.8646 100.993 36.6556C101.113 36.4465 101.173 36.2266 101.173 35.996V35.2174C101.137 35.2607 101.058 35.3003 100.935 35.3363C100.815 35.37 100.676 35.4 100.517 35.4265C100.361 35.4505 100.208 35.4721 100.059 35.4913C99.9127 35.5082 99.7937 35.5226 99.7024 35.5346C99.4814 35.5634 99.2747 35.6103 99.0825 35.6752C98.8926 35.7376 98.7388 35.8326 98.6211 35.9599C98.5058 36.0849 98.4481 36.2555 98.4481 36.4717C98.4481 36.7673 98.5574 36.9908 98.7761 37.1422C98.9972 37.2911 99.2771 37.3656 99.6159 37.3656ZM105.667 38.1153C105.205 38.1153 104.798 37.9988 104.445 37.7657C104.092 37.5302 103.815 37.1986 103.616 36.7709C103.416 36.3408 103.317 35.8326 103.317 35.2462C103.317 34.6647 103.416 34.1601 103.616 33.7324C103.815 33.3047 104.093 32.9743 104.449 32.7412C104.804 32.5081 105.215 32.3915 105.681 32.3915C106.042 32.3915 106.326 32.4516 106.535 32.5718C106.747 32.6895 106.908 32.8241 107.018 32.9755C107.131 33.1244 107.219 33.247 107.282 33.3431H107.354V30.6182H108.204V38H107.383V37.1494H107.282C107.219 37.2503 107.13 37.3776 107.015 37.5314C106.9 37.6828 106.735 37.8186 106.521 37.9387C106.307 38.0565 106.022 38.1153 105.667 38.1153ZM105.782 37.3512C106.123 37.3512 106.412 37.2623 106.647 37.0845C106.883 36.9043 107.062 36.6556 107.184 36.3384C107.307 36.0188 107.368 35.6499 107.368 35.2318C107.368 34.8185 107.308 34.4569 107.188 34.1469C107.068 33.8345 106.89 33.5918 106.654 33.4188C106.419 33.2434 106.128 33.1557 105.782 33.1557C105.422 33.1557 105.121 33.2482 104.881 33.4332C104.643 33.6158 104.464 33.8645 104.344 34.1793C104.226 34.4917 104.167 34.8425 104.167 35.2318C104.167 35.6259 104.227 35.9839 104.348 36.3059C104.47 36.6255 104.65 36.8802 104.888 37.0701C105.129 37.2575 105.427 37.3512 105.782 37.3512ZM109.88 38V32.4636H110.731V38H109.88ZM110.313 31.5409C110.147 31.5409 110.004 31.4844 109.884 31.3715C109.766 31.2586 109.707 31.1228 109.707 30.9642C109.707 30.8056 109.766 30.6698 109.884 30.5569C110.004 30.444 110.147 30.3875 110.313 30.3875C110.479 30.3875 110.62 30.444 110.738 30.5569C110.858 30.6698 110.918 30.8056 110.918 30.9642C110.918 31.1228 110.858 31.2586 110.738 31.3715C110.62 31.4844 110.479 31.5409 110.313 31.5409ZM113.14 34.6695V38H112.289V32.4636H113.111V33.3287H113.183C113.313 33.0475 113.51 32.8217 113.774 32.6511C114.038 32.4781 114.38 32.3915 114.798 32.3915C115.173 32.3915 115.501 32.4684 115.782 32.6222C116.063 32.7736 116.281 33.0043 116.438 33.3143C116.594 33.6219 116.672 34.0111 116.672 34.4821V38H115.821V34.5398C115.821 34.1048 115.708 33.766 115.482 33.5233C115.257 33.2782 114.947 33.1557 114.553 33.1557C114.281 33.1557 114.038 33.2146 113.824 33.3323C113.613 33.45 113.446 33.6219 113.323 33.8477C113.201 34.0736 113.14 34.3475 113.14 34.6695ZM120.461 40.1915C120.05 40.1915 119.697 40.1386 119.401 40.0329C119.106 39.9296 118.86 39.7926 118.662 39.622C118.468 39.4538 118.313 39.2736 118.198 39.0813L118.875 38.6055C118.952 38.7065 119.049 38.8218 119.167 38.9516C119.285 39.0837 119.446 39.1979 119.65 39.294C119.857 39.3925 120.127 39.4418 120.461 39.4418C120.908 39.4418 121.277 39.3336 121.568 39.1174C121.858 38.9011 122.004 38.5623 122.004 38.1009V36.9763H121.932C121.869 37.0773 121.78 37.2022 121.665 37.3512C121.552 37.4978 121.389 37.6287 121.175 37.7441C120.963 37.857 120.677 37.9135 120.317 37.9135C119.87 37.9135 119.469 37.8078 119.113 37.5963C118.76 37.3848 118.48 37.0773 118.273 36.6736C118.069 36.2699 117.967 35.7797 117.967 35.203C117.967 34.6359 118.067 34.1421 118.266 33.7216C118.465 33.2987 118.743 32.9719 119.099 32.7412C119.454 32.5081 119.865 32.3915 120.331 32.3915C120.692 32.3915 120.978 32.4516 121.189 32.5718C121.403 32.6895 121.566 32.8241 121.679 32.9755C121.795 33.1244 121.884 33.247 121.946 33.3431H122.033V32.4636H122.854V38.1586C122.854 38.6344 122.746 39.0212 122.53 39.3192C122.316 39.6196 122.028 39.8394 121.665 39.9788C121.305 40.1206 120.903 40.1915 120.461 40.1915ZM120.432 37.1494C120.773 37.1494 121.062 37.0713 121.297 36.9151C121.533 36.7589 121.712 36.5342 121.834 36.2411C121.957 35.9479 122.018 35.5971 122.018 35.1886C122.018 34.7897 121.958 34.4376 121.838 34.1325C121.718 33.8273 121.54 33.5882 121.305 33.4152C121.069 33.2422 120.778 33.1557 120.432 33.1557C120.072 33.1557 119.771 33.247 119.531 33.4296C119.293 33.6122 119.114 33.8573 118.994 34.1649C118.876 34.4725 118.817 34.8137 118.817 35.1886C118.817 35.573 118.878 35.9131 118.998 36.2086C119.12 36.5018 119.3 36.7325 119.538 36.9007C119.779 37.0665 120.077 37.1494 120.432 37.1494Z" fill="#379CFF"/>
<defs>
<clipPath id="clip0_2_4">
<rect width="124.373" height="44" fill="white"/>
</clipPath>
</defs>
</svg>
